<svg id="编组_3" data-name="编组 3" xmlns="http://www.w3.org/2000/svg" width="388" height="4" viewBox="0 0 388 4">
  <path id="矩形" d="M2.977,0H14L11,4H0Z" fill="#4b69ff"/>
  <path id="矩形备份_5" data-name="矩形备份 5" d="M2.977,0H14L11,4H0Z" transform="translate(44)" fill="#4b69ff"/>
  <path id="矩形备份_8" data-name="矩形备份 8" d="M2.977,0H14L11,4H0Z" transform="translate(88)" fill="#4b69ff"/>
  <path id="矩形备份_11" data-name="矩形备份 11" d="M2.977,0H14L11,4H0Z" transform="translate(132)" fill="#4b69ff"/>
  <path id="矩形备份_14" data-name="矩形备份 14" d="M2.977,0H14L11,4H0Z" transform="translate(176)" fill="#4b69ff"/>
  <path id="矩形备份_17" data-name="矩形备份 17" d="M2.977,0H14L11,4H0Z" transform="translate(220)" fill="#4b69ff"/>
  <path id="矩形备份_20" data-name="矩形备份 20" d="M2.977,0H14L11,4H0Z" transform="translate(264)" fill="#4b69ff"/>
  <path id="矩形备份_23" data-name="矩形备份 23" d="M2.977,0H14L11,4H0Z" transform="translate(308)" fill="#4b69ff"/>
  <path id="矩形备份_26" data-name="矩形备份 26" d="M2.977,0H14L11,4H0Z" transform="translate(352)" fill="#4b69ff"/>
  <path id="矩形备份_2" data-name="矩形备份 2" d="M2.977,0H14L11,4H0Z" transform="translate(22)" fill="#fe4d96"/>
  <path id="矩形备份_6" data-name="矩形备份 6" d="M2.977,0H14L11,4H0Z" transform="translate(66)" fill="#fe4d96"/>
  <path id="矩形备份_9" data-name="矩形备份 9" d="M2.977,0H14L11,4H0Z" transform="translate(110)" fill="#fe4d96"/>
  <path id="矩形备份_12" data-name="矩形备份 12" d="M2.977,0H14L11,4H0Z" transform="translate(154)" fill="#fe4d96"/>
  <path id="矩形备份_15" data-name="矩形备份 15" d="M2.977,0H14L11,4H0Z" transform="translate(198)" fill="#fe4d96"/>
  <path id="矩形备份_18" data-name="矩形备份 18" d="M2.977,0H14L11,4H0Z" transform="translate(242)" fill="#fe4d96"/>
  <path id="矩形备份_21" data-name="矩形备份 21" d="M2.977,0H14L11,4H0Z" transform="translate(286)" fill="#fe4d96"/>
  <path id="矩形备份_24" data-name="矩形备份 24" d="M2.977,0H14L11,4H0Z" transform="translate(330)" fill="#fe4d96"/>
  <path id="矩形备份_3" data-name="矩形备份 3" d="M2.977,0H14L11,4H0Z" transform="translate(11)" fill="#f6f6f6"/>
  <path id="矩形备份_28" data-name="矩形备份 28" d="M2.977,0H14L11,4H0Z" transform="translate(33)" fill="#f6f6f6"/>
  <path id="矩形备份_29" data-name="矩形备份 29" d="M2.977,0H14L11,4H0Z" transform="translate(77)" fill="#f6f6f6"/>
  <path id="矩形备份_30" data-name="矩形备份 30" d="M2.977,0H14L11,4H0Z" transform="translate(121)" fill="#f6f6f6"/>
  <path id="矩形备份_31" data-name="矩形备份 31" d="M2.977,0H14L11,4H0Z" transform="translate(165)" fill="#f6f6f6"/>
  <path id="矩形备份_32" data-name="矩形备份 32" d="M2.977,0H14L11,4H0Z" transform="translate(209)" fill="#f6f6f6"/>
  <path id="矩形备份_33" data-name="矩形备份 33" d="M2.977,0H14L11,4H0Z" transform="translate(253)" fill="#f6f6f6"/>
  <path id="矩形备份_34" data-name="矩形备份 34" d="M2.977,0H14L11,4H0Z" transform="translate(297)" fill="#f6f6f6"/>
  <path id="矩形备份_35" data-name="矩形备份 35" d="M2.977,0H14L11,4H0Z" transform="translate(341)" fill="#f6f6f6"/>
  <path id="矩形备份_7" data-name="矩形备份 7" d="M2.977,0H14L11,4H0Z" transform="translate(55)" fill="#f6f6f6"/>
  <path id="矩形备份_10" data-name="矩形备份 10" d="M2.977,0H14L11,4H0Z" transform="translate(99)" fill="#f6f6f6"/>
  <path id="矩形备份_13" data-name="矩形备份 13" d="M2.977,0H14L11,4H0Z" transform="translate(143)" fill="#f6f6f6"/>
  <path id="矩形备份_16" data-name="矩形备份 16" d="M2.977,0H14L11,4H0Z" transform="translate(187)" fill="#f6f6f6"/>
  <path id="矩形备份_19" data-name="矩形备份 19" d="M2.977,0H14L11,4H0Z" transform="translate(231)" fill="#f6f6f6"/>
  <path id="矩形备份_22" data-name="矩形备份 22" d="M2.977,0H14L11,4H0Z" transform="translate(275)" fill="#f6f6f6"/>
  <path id="矩形备份_25" data-name="矩形备份 25" d="M2.977,0H14L11,4H0Z" transform="translate(319)" fill="#f6f6f6"/>
  <path id="矩形备份_27" data-name="矩形备份 27" d="M2.977,0H14L11,4H0Z" transform="translate(374)" fill="#fe4d96"/>
  <path id="矩形备份_36" data-name="矩形备份 36" d="M2.977,0H14L11,4H0Z" transform="translate(363)" fill="#f6f6f6"/>
</svg>
