<svg xmlns="http://www.w3.org/2000/svg" width="20.6" height="20.6" viewBox="0 0 20.6 20.6">
  <path id="Chat" d="M1.9,19v0l.7-4.449A8.117,8.117,0,0,1,0,8.5a8.122,8.122,0,0,1,2.564-6.01A9.925,9.925,0,0,1,9.5,0a9.923,9.923,0,0,1,6.936,2.489A8.123,8.123,0,0,1,19,8.5a8.124,8.124,0,0,1-2.564,6.011A9.923,9.923,0,0,1,9.5,17a11.546,11.546,0,0,1-3.578-.541L1.9,19ZM5,11H5ZM5,6H5Z" transform="translate(0.8 0.8)" fill="none" stroke="#fff" stroke-linecap="round" stroke-linejoin="round" stroke-miterlimit="10" stroke-width="1.6"/>
</svg>
