<svg xmlns="http://www.w3.org/2000/svg" width="36.25" height="27.656" viewBox="0 0 36.25 27.656">
  <g id="LOGO" transform="translate(0 1)">
    <g id="形状结合" transform="translate(6)" fill="#fff" stroke-linejoin="round" stroke-miterlimit="10">
      <path d="M 0.4995001256465912 9.5 C 0.315010130405426 9.5 0.1284901350736618 9.489729881286621 -0.05488986149430275 9.469479560852051 L -0.4999998509883881 9.420319557189941 L -0.4999998509883881 8.972499847412109 L -0.4999998509883881 0.02748999930918217 L -0.4999998509883881 -0.4203700125217438 L -0.05483986437320709 -0.4694899916648865 C 0.1286201328039169 -0.4897400140762329 0.3151301443576813 -0.5 0.4995001256465912 -0.5 C 3.256510019302368 -0.5 5.499500274658203 1.742990016937256 5.499500274658203 4.5 C 5.499500274658203 7.257009983062744 3.256510019302368 9.5 0.4995001256465912 9.5 Z" stroke="none"/>
      <path d="M 0.4995001256465912 9 C 2.980810165405273 9 4.999500274658203 6.98130989074707 4.999500274658203 4.5 C 4.999500274658203 2.01869010925293 2.980810165405273 0 0.4995001256465912 0 C 0.3361401259899139 0 0.1683901399374008 0.008910000324249268 1.373290956507844e-07 0.02748999930918217 L 1.373290956507844e-07 8.972499847412109 C 0.1652401387691498 8.990750312805176 0.3332901298999786 9 0.4995001256465912 9 M 0.4995001256465912 10 C 0.2967401444911957 10 0.0917501375079155 9.988710403442383 -0.1097798645496368 9.966460227966309 C -0.6164998412132263 9.910490036010742 -0.9999998807907104 9.4822998046875 -0.9999998807907104 8.972499847412109 L -0.9999998807907104 0.02748999930918217 C -0.9999998807907104 -0.4823499917984009 -0.6164398789405823 -0.9105600118637085 -0.1096698641777039 -0.966480016708374 C 0.09192013740539551 -0.9887199997901917 0.2968801259994507 -1 0.4995001256465912 -1 C 3.532210111618042 -1 5.999500274658203 1.467290043830872 5.999500274658203 4.5 C 5.999500274658203 7.532710075378418 3.532210111618042 10 0.4995001256465912 10 Z" stroke="none" fill="#fff"/>
    </g>
    <g id="编组_9" data-name="编组 9" transform="translate(0 1)">
      <rect id="矩形" width="28" height="22" rx="11" transform="translate(3)" fill="#fff"/>
      <path id="路径" d="M0,0H4A3,3,0,0,1,7,3V4.345H7" transform="translate(28 11)" fill="none" stroke="#fff" stroke-linecap="round" stroke-miterlimit="10" stroke-width="2.5"/>
      <rect id="矩形-2" data-name="矩形" width="4.5" height="7" rx="1.5" transform="translate(19.551 19.594) rotate(-30)" fill="#fff"/>
      <rect id="矩形备份_3" data-name="矩形备份 3" width="4.5" height="7" rx="1.5" transform="translate(11.051 17.344) rotate(30)" fill="#fff"/>
      <rect id="矩形-3" data-name="矩形" width="6" height="9" rx="2.8" transform="translate(0 6)" fill="#fff"/>
    </g>
    <path id="路径-2" data-name="路径" d="M8,9H4.8A4.657,4.657,0,0,1,0,4.5,4.657,4.657,0,0,1,4.8,0H8" transform="translate(13 7)" fill="none" stroke="#fb7f41" stroke-linecap="round" stroke-miterlimit="10" stroke-width="2.8"/>
  </g>
</svg>
