<svg id="消费劵" xmlns="http://www.w3.org/2000/svg" xmlns:xlink="http://www.w3.org/1999/xlink" width="63" height="36" viewBox="0 0 63 36">
  <defs>
    <linearGradient id="linear-gradient" x1="0.5" x2="0.5" y2="1" gradientUnits="objectBoundingBox">
      <stop offset="0" stop-color="#ffd860"/>
      <stop offset="1" stop-color="#fbae17"/>
    </linearGradient>
    <linearGradient id="linear-gradient-2" x1="0.5" x2="0.5" y2="1" gradientUnits="objectBoundingBox">
      <stop offset="0" stop-color="#ffecca"/>
      <stop offset="1" stop-color="#ffa358"/>
    </linearGradient>
  </defs>
  <path id="矩形" d="M0,0,5.664,2.5H37a4,4,0,0,1,4,4v23a4,4,0,0,1-4,4H4a4,4,0,0,1-4-4V0Z" transform="translate(12 2.5)" fill="url(#linear-gradient)"/>
  <path id="矩形-2" data-name="矩形" d="M2.5,0h32A2.5,2.5,0,0,1,37,2.5V5a0,0,0,0,1,0,0H2.5A2.5,2.5,0,0,1,0,2.5v0A2.5,2.5,0,0,1,2.5,0Z" transform="translate(12)" fill="#ffaa62"/>
  <path id="形状结合" d="M10.5,6h-9A1.5,1.5,0,0,1,0,4.5v-3A1.5,1.5,0,0,1,1.5,0h9A1.5,1.5,0,0,1,12,1.5v3A1.5,1.5,0,0,1,10.5,6ZM3,2A1,1,0,1,0,4,3,1,1,0,0,0,3,2Z" transform="translate(42 17)" fill="#ffe5b2"/>
  <text id="_" data-name="￥" transform="translate(23 8)" fill="#fff" font-size="18" font-family="YuGothicUI-Regular, Yu Gothic UI" letter-spacing="0.024em"><tspan x="0" y="19">￥</tspan></text>
  <circle id="椭圆形" cx="4" cy="4" r="4" transform="translate(0 21)" fill="url(#linear-gradient-2)"/>
  <circle id="椭圆形备份_32" data-name="椭圆形备份 32" cx="1.5" cy="1.5" r="1.5" transform="translate(54)" fill="url(#linear-gradient-2)"/>
  <circle id="椭圆形备份_33" data-name="椭圆形备份 33" cx="3" cy="3" r="3" transform="translate(57 27)" fill="url(#linear-gradient-2)"/>
</svg>
