<svg xmlns="http://www.w3.org/2000/svg" xmlns:xlink="http://www.w3.org/1999/xlink" width="74" height="76" viewBox="0 0 74 76">
  <defs>
    <linearGradient id="linear-gradient" x1="0.192" y1="0.095" x2="0.822" y2="0.869" gradientUnits="objectBoundingBox">
      <stop offset="0" stop-color="#feb085"/>
      <stop offset="1" stop-color="#ff6a1f"/>
    </linearGradient>
    <linearGradient id="linear-gradient-2" x1="0.324" y1="0.072" x2="0.53" y2="1" gradientUnits="objectBoundingBox">
      <stop offset="0" stop-color="#ffb48b"/>
      <stop offset="1" stop-color="#ff8a50"/>
    </linearGradient>
    <filter id="星形" x="29.917" y="20.13" width="15.167" height="14.62" filterUnits="userSpaceOnUse">
      <feOffset dx="0.5" dy="1" input="SourceAlpha"/>
      <feGaussianBlur stdDeviation="0.5" result="blur"/>
      <feFlood flood-color="#ffdecc"/>
      <feComposite operator="in" in2="blur"/>
      <feComposite in="SourceGraphic"/>
    </filter>
  </defs>
  <g id="今日特价" transform="translate(9)">
    <rect id="矩形备份_10" data-name="矩形备份 10" width="38" height="30" rx="11" transform="translate(9 28)" fill="#ff7028" opacity="0.917"/>
    <rect id="矩形" width="56" height="56" rx="19" fill="url(#linear-gradient)"/>
    <path id="矩形-2" data-name="矩形" d="M0,4A4,4,0,0,1,4,0H22a4,4,0,0,1,4,4V28.607a2,2,0,0,1-2.969,1.75L13.969,25.34a2,2,0,0,0-1.937,0L2.969,30.357A2,2,0,0,1,0,28.607Z" transform="translate(15 14)" fill="#fff"/>
    <g transform="matrix(1, 0, 0, 1, -9, 0)" filter="url(#星形)">
      <path id="星形-2" data-name="星形" d="M7.233,10.622a.5.5,0,0,0-.465,0L3.782,12.192a.5.5,0,0,1-.725-.527l.57-3.324A.5.5,0,0,0,3.483,7.9L1.068,5.544a.5.5,0,0,1,.277-.853l3.337-.485a.5.5,0,0,0,.376-.274L6.552.908a.5.5,0,0,1,.9,0L8.941,3.933a.5.5,0,0,0,.376.274l3.337.485a.5.5,0,0,1,.277.853L10.517,7.9a.5.5,0,0,0-.144.443l.57,3.324a.5.5,0,0,1-.725.527Z" transform="translate(30 20)" fill="url(#linear-gradient-2)"/>
    </g>
  </g>
</svg>
