<svg id="口腔护理" xmlns="http://www.w3.org/2000/svg" width="19.872" height="30" viewBox="0 0 19.872 30">
  <g id="矩形" transform="translate(2 1)" fill="#fee8ad" stroke="#474e53" stroke-miterlimit="10" stroke-width="0.5">
    <rect width="5" height="9" rx="1" stroke="none"/>
    <rect x="0.25" y="0.25" width="4.5" height="8.5" rx="0.75" fill="none"/>
  </g>
  <path id="直线" d="M.5.5h4" transform="translate(2 2)" fill="none" stroke="#474e53" stroke-linecap="square" stroke-miterlimit="10" stroke-width="0.4"/>
  <path id="直线备份" d="M0,1H4" transform="translate(2.5 3.5)" fill="none" stroke="#474e53" stroke-linecap="square" stroke-miterlimit="10" stroke-width="0.4"/>
  <path id="直线备份_2" data-name="直线备份 2" d="M0,1H4" transform="translate(2.5 5.5)" fill="none" stroke="#474e53" stroke-linecap="square" stroke-miterlimit="10" stroke-width="0.4"/>
  <path id="直线备份_3" data-name="直线备份 3" d="M0,.5H4.7" transform="translate(2 7.5)" fill="none" stroke="#474e53" stroke-linecap="square" stroke-miterlimit="10" stroke-width="0.4"/>
  <g id="矩形-2" data-name="矩形" fill="#acebfc" stroke="#474e53" stroke-miterlimit="10" stroke-width="0.6">
    <rect width="3" height="30" rx="1.5" stroke="none"/>
    <rect x="0.3" y="0.3" width="2.4" height="29.4" rx="1.2" fill="none"/>
  </g>
  <g id="矩形-3" data-name="矩形" transform="translate(11 1)" fill="#fff" stroke="#474e53" stroke-miterlimit="10" stroke-width="0.6">
    <rect width="6" height="6" rx="2" stroke="none"/>
    <rect x="0.3" y="0.3" width="5.4" height="5.4" rx="1.7" fill="none"/>
  </g>
  <g id="矩形-4" data-name="矩形" transform="translate(8 4)" fill="#a9ecff" stroke-miterlimit="10">
    <path d="M 9.87216854095459 25.70000076293945 L 2.14021897315979 25.70000076293945 C 1.664238929748535 25.70000076293945 1.223128914833069 25.50848007202148 0.8981389403343201 25.16070938110352 C 0.5731589198112488 24.81294059753418 0.4119089245796204 24.3598804473877 0.4441089332103729 23.88499069213867 L 1.935968995094299 1.884989976882935 C 1.996238946914673 0.996209979057312 2.741258859634399 0.300000011920929 3.632078886032104 0.300000011920929 L 8.508218765258789 0.300000011920929 C 9.404218673706055 0.300000011920929 10.1495189666748 1.000519990921021 10.20495891571045 1.894799947738647 L 11.56889915466309 23.89480018615723 C 11.59823894500732 24.36800003051758 11.43557929992676 24.81884002685547 11.11086940765381 25.1643009185791 C 10.78617858886719 25.50975036621094 10.34625911712646 25.70000076293945 9.87216854095459 25.70000076293945 Z" stroke="none"/>
    <path d="M 3.632079124450684 0.6000003814697266 C 2.898468971252441 0.6000003814697266 2.284918785095215 1.173349380493164 2.235288619995117 1.905279159545898 L 0.7434291839599609 23.90528106689453 C 0.7169094085693359 24.2963695526123 0.8496990203857422 24.66947937011719 1.117328643798828 24.95587921142578 C 1.384968757629395 25.24226951599121 1.748238563537598 25.39999961853027 2.140218734741211 25.39999961853027 L 9.872169494628906 25.39999961853027 C 10.26259899139404 25.39999961853027 10.62487888336182 25.24332046508789 10.89227867126465 24.95883941650391 C 11.1596794128418 24.67433929443359 11.29363918304443 24.30305099487305 11.2694787979126 23.91337013244629 L 9.905538558959961 1.913370132446289 C 9.859878540039063 1.176900863647461 9.246099472045898 0.6000003814697266 8.508218765258789 0.6000003814697266 L 3.632079124450684 0.6000003814697266 M 3.632079124450684 0 L 8.508218765258789 0 C 9.564728736877441 0 10.43900871276855 0.8217506408691406 10.5043888092041 1.876239776611328 L 11.86832904815674 23.87623977661133 C 11.93968868255615 25.02728080749512 11.02540874481201 26 9.872169494628906 26 L 2.140218734741211 26 C 0.9823884963989258 26 0.06646919250488281 25.01985931396484 0.1447992324829102 23.86469078063965 L 1.636658668518066 1.864690780639648 C 1.707839012145996 0.8150501251220703 2.580028533935547 0 3.632079124450684 0 Z" stroke="none" fill="#474e53"/>
  </g>
  <g id="矩形-5" data-name="矩形" transform="translate(12 10)" fill="#fee8ad" stroke="#474e53" stroke-miterlimit="10" stroke-width="0.5">
    <rect width="4" height="16" rx="2" stroke="none"/>
    <rect x="0.25" y="0.25" width="3.5" height="15.5" rx="1.75" fill="none"/>
  </g>
</svg>
