<svg xmlns="http://www.w3.org/2000/svg" xmlns:xlink="http://www.w3.org/1999/xlink" width="12" height="30" viewBox="0 0 12 30">
  <defs>
    <clipPath id="clip-path">
      <path id="蒙版" d="M.2,0H11.8a.2.2,0,0,1,.2.2v16A6.8,6.8,0,0,1,5.2,23h0A5.2,5.2,0,0,1,0,17.8V.2A.2.2,0,0,1,.2,0Z" transform="translate(0.603 0.829)" fill="#fff5e1"/>
    </clipPath>
  </defs>
  <g id="哺乳" transform="translate(-0.603)">
    <g id="矩形" transform="translate(5.603)" fill="#f5a3bc" stroke="#906866" stroke-miterlimit="10" stroke-width="0.5">
      <rect width="2" height="7" rx="1" stroke="none"/>
      <rect x="0.25" y="0.25" width="1.5" height="6.5" rx="0.75" fill="none"/>
    </g>
    <g id="椭圆形" transform="translate(3.603 2)" fill="#f5a3bc" stroke="#906866" stroke-miterlimit="10" stroke-width="0.6">
      <circle cx="3" cy="3" r="3" stroke="none"/>
      <circle cx="3" cy="3" r="2.7" fill="none"/>
    </g>
    <g id="路径_12" data-name="路径 12" transform="translate(0 6.171)">
      <path id="蒙版-2" data-name="蒙版" d="M.2,0H11.8a.2.2,0,0,1,.2.2v16A6.8,6.8,0,0,1,5.2,23h0A5.2,5.2,0,0,1,0,17.8V.2A.2.2,0,0,1,.2,0Z" transform="translate(0.603 0.829)" fill="#fff5e1"/>
      <g id="路径_12-2" data-name="路径 12" clip-path="url(#clip-path)">
        <path id="路径_12-3" data-name="路径 12" d="M3.14,11.647a16.931,16.931,0,0,1,4.242-1.186c1.355,0,2.055,2.688,3.46,2.688s2.228-2.688,3.761-2.688S16,13.77,18,13.77,21.685,0,21.685,0L0,.329Z" transform="translate(-5 -3)" fill="#83ccfe" stroke="#60728c" stroke-miterlimit="10" stroke-width="0.5"/>
      </g>
    </g>
    <path id="直线_10" data-name="直线 10" d="M.5.5v14" transform="translate(2.603 10)" fill="none" stroke="#906866" stroke-linecap="square" stroke-miterlimit="10" stroke-width="0.6"/>
    <path id="直线_11" data-name="直线 11" d="M.5.5h2" transform="translate(1.603 10)" fill="none" stroke="#906866" stroke-linecap="square" stroke-miterlimit="10" stroke-width="0.6"/>
    <path id="直线_11备份" data-name="直线 11备份" d="M.5.5h2" transform="translate(1.603 18)" fill="none" stroke="#906866" stroke-linecap="square" stroke-miterlimit="10" stroke-width="0.6"/>
    <path id="直线_11备份_2" data-name="直线 11备份 2" d="M0,.5H2" transform="translate(2.103 24.5)" fill="none" stroke="#906866" stroke-linecap="square" stroke-miterlimit="10" stroke-width="0.6"/>
    <g id="矩形备份_4" data-name="矩形备份 4" transform="translate(0.603 7)" fill="none" stroke="#906866" stroke-miterlimit="10" stroke-width="0.6">
      <path d="M.2,0H11.8a.2.2,0,0,1,.2.2v16A6.8,6.8,0,0,1,5.2,23h0A5.2,5.2,0,0,1,0,17.8V.2A.2.2,0,0,1,.2,0Z" stroke="none"/>
      <path d="M.462.3H11.538A.162.162,0,0,1,11.7.462V16.236A6.464,6.464,0,0,1,5.236,22.7h0A4.936,4.936,0,0,1,.3,17.764V.462A.162.162,0,0,1,.462.3Z" fill="none"/>
    </g>
    <g id="矩形-2" data-name="矩形" transform="translate(1.603 4.5)" fill="#f4cfb4" stroke="#906866" stroke-miterlimit="10" stroke-width="0.6">
      <rect width="10" height="3" rx="1.3" stroke="none"/>
      <rect x="0.3" y="0.3" width="9.4" height="2.4" rx="1" fill="none"/>
    </g>
  </g>
</svg>
