<svg xmlns="http://www.w3.org/2000/svg" xmlns:xlink="http://www.w3.org/1999/xlink" width="74" height="77" viewBox="0 0 74 77">
  <defs>
    <linearGradient id="linear-gradient" x1="0.192" y1="0.095" x2="0.822" y2="0.869" gradientUnits="objectBoundingBox">
      <stop offset="0" stop-color="#73b4ff"/>
      <stop offset="1" stop-color="#0977ff"/>
    </linearGradient>
    <clipPath id="clip-path">
      <path id="形状结合" d="M31,26H6a6.007,6.007,0,0,1-6-6V6A6.007,6.007,0,0,1,6,0H31a6.007,6.007,0,0,1,6,6V8.756a4.5,4.5,0,0,0,0,8.488V20A6.007,6.007,0,0,1,31,26Z" fill="#fff"/>
    </clipPath>
    <linearGradient id="linear-gradient-2" y1="0.465" x2="1" y2="0.465" gradientUnits="objectBoundingBox">
      <stop offset="0" stop-color="#3c95ff"/>
      <stop offset="1" stop-color="#9bc8ff"/>
    </linearGradient>
    <linearGradient id="linear-gradient-3" x1="0.169" x2="0.831" y2="1.244" gradientUnits="objectBoundingBox">
      <stop offset="0" stop-color="#aadaff"/>
      <stop offset="1" stop-color="#71b3ff"/>
    </linearGradient>
    <filter id="矩形" x="33" y="22" width="17.5" height="6" filterUnits="userSpaceOnUse">
      <feOffset dx="2" dy="0.5" input="SourceAlpha"/>
      <feGaussianBlur stdDeviation="0.5" result="blur"/>
      <feFlood flood-color="#d0e6ff"/>
      <feComposite operator="in" in2="blur"/>
      <feComposite in="SourceGraphic"/>
    </filter>
    <filter id="矩形备份_11" x="33" y="30" width="17.5" height="6" filterUnits="userSpaceOnUse">
      <feOffset dx="2" dy="0.5" input="SourceAlpha"/>
      <feGaussianBlur stdDeviation="0.5" result="blur-2"/>
      <feFlood flood-color="#d0e6ff"/>
      <feComposite operator="in" in2="blur-2"/>
      <feComposite in="SourceGraphic"/>
    </filter>
  </defs>
  <g id="大牌折扣" transform="translate(10)">
    <rect id="矩形备份_10" data-name="矩形备份 10" width="38" height="30" rx="11" transform="translate(8 29)" fill="#4f9ffe" opacity="0.84"/>
    <rect id="矩形-2" data-name="矩形" width="56" height="56" rx="19" fill="url(#linear-gradient)"/>
    <rect id="矩形-3" data-name="矩形" width="32" height="23" rx="7" transform="translate(8 21)" fill="none" opacity="0.343"/>
    <g id="矩形-4" data-name="矩形" transform="translate(10 15)">
      <path id="形状结合-2" data-name="形状结合" d="M31,26H6a6.007,6.007,0,0,1-6-6V6A6.007,6.007,0,0,1,6,0H31a6.007,6.007,0,0,1,6,6V8.756a4.5,4.5,0,0,0,0,8.488V20A6.007,6.007,0,0,1,31,26Z" fill="#fff"/>
      <g id="矩形-5" data-name="矩形" clip-path="url(#clip-path)">
        <rect id="矩形-6" data-name="矩形" width="15" height="37" transform="translate(-6 -5)" opacity="0.887" fill="url(#linear-gradient-2)"/>
      </g>
    </g>
    <g transform="matrix(1, 0, 0, 1, -10, 0)" filter="url(#矩形)">
      <rect id="矩形-7" data-name="矩形" width="14" height="3" rx="1.5" transform="translate(33 23)" opacity="0.899" fill="url(#linear-gradient-3)"/>
    </g>
    <g transform="matrix(1, 0, 0, 1, -10, 0)" filter="url(#矩形备份_11)">
      <rect id="矩形备份_11-2" data-name="矩形备份 11" width="14" height="3" rx="1.5" transform="translate(33 31)" opacity="0.899" fill="url(#linear-gradient-3)"/>
    </g>
  </g>
</svg>
