<svg xmlns="http://www.w3.org/2000/svg" width="20.963" height="33.677" viewBox="0 0 20.963 33.677">
  <g id="孕产" transform="translate(0.3 0.302)">
    <path id="路径_22" data-name="路径 22" d="M15.815,12.9V.123s-4.749-.5-6.236,1.036A13.5,13.5,0,0,0,7.168,5.293S0,7,0,12.9s4.757,7.176,7.168,7.176,8.647,0,8.647-1.273Z" transform="translate(0 13)" fill="#6ec3fb" stroke="#4c423c" stroke-miterlimit="10" stroke-width="0.6"/>
    <path id="路径_26" data-name="路径 26" d="M0,.865S1.048,2.7,1.933,2.147,2.149,0,2.149,0Z" transform="translate(4.181 18.473)" fill="#fbd0c4"/>
    <path id="路径_22备份" data-name="路径 22备份" d="M15.815,12.9V.123s-4.749-.5-6.236,1.036A13.5,13.5,0,0,0,7.168,5.293S0,7,0,12.9s4.757,7.176,7.168,7.176,8.647,0,8.647-1.273Z" transform="translate(0 13)" fill="none" stroke="#4c423c" stroke-miterlimit="10" stroke-width="0.6"/>
    <g id="椭圆形" transform="translate(7 2)" fill="#ffcebe" stroke="#4c423c" stroke-miterlimit="10" stroke-width="0.6">
      <circle cx="6" cy="6" r="6" stroke="none"/>
      <circle cx="6" cy="6" r="5.7" fill="none"/>
    </g>
    <path id="路径_25" data-name="路径 25" d="M6.671,0A11.166,11.166,0,0,1,0,5.756" transform="translate(5.796 19.095)" fill="none" stroke="#fbd0c4" stroke-linecap="round" stroke-miterlimit="10" stroke-width="2"/>
    <path id="路径_24" data-name="路径 24" d="M1.944.925S1.107,4.081.008,4.772c-.14.224,2.22,1.2,2.22,1.2S4,3.42,4,2.394A16.849,16.849,0,0,0,3.758,0Z" transform="translate(11 14)" fill="#5cb1e8"/>
    <path id="路径_23" data-name="路径 23" d="M0,4.823C0,4.544,1.988-.457,6.769.034s5.512,3.851,6.051,5.725.6,5.2-.177,6.742S8.976,15.29,6.769,14.925a27.254,27.254,0,0,0,.556-2.866c0-.842-.24-2.2,0-2.446a7.641,7.641,0,0,0,.8-.965c.285-.524.659-2.019-1.132-2.125C4.945,7.134,0,5.1,0,4.823Z" transform="translate(7 0)" fill="#a36c4e" stroke="#4c423c" stroke-miterlimit="10" stroke-width="0.6"/>
    <ellipse id="椭圆形-2" data-name="椭圆形" cx="0.5" cy="1" rx="0.5" ry="1" transform="translate(9 7)" fill="#4a4a4a"/>
  </g>
</svg>
