<svg xmlns="http://www.w3.org/2000/svg" xmlns:xlink="http://www.w3.org/1999/xlink" width="28.298" height="29.3" viewBox="0 0 28.298 29.3">
  <defs>
    <clipPath id="clip-path">
      <path id="蒙版" d="M0,10c0,5.523,5.6,10,12.5,10S25,15.523,25,10,19.4,0,12.5,0V10" transform="translate(0)" fill="#6bc4fe"/>
    </clipPath>
  </defs>
  <g id="宝宝出行" transform="translate(0.3 0.3)">
    <g id="编组_10" data-name="编组 10" transform="translate(5.698 17)">
      <g id="椭圆形" transform="translate(0 4)" fill="none" stroke="#7b5555" stroke-miterlimit="10" stroke-width="0.6">
        <circle cx="4" cy="4" r="4" stroke="none"/>
        <circle cx="4" cy="4" r="3.7" fill="none"/>
      </g>
      <g id="椭圆形备份_4" data-name="椭圆形备份 4" transform="translate(12 4)" fill="none" stroke="#7b5555" stroke-miterlimit="10" stroke-width="0.6">
        <circle cx="4" cy="4" r="4" stroke="none"/>
        <circle cx="4" cy="4" r="3.7" fill="none"/>
      </g>
      <path id="直线_2" data-name="直线 2" d="M.5.5l5,5" transform="translate(1 5)" fill="none" stroke="#7b5555" stroke-linecap="square" stroke-miterlimit="10" stroke-width="0.6"/>
      <path id="直线_2备份" data-name="直线 2备份" d="M-.5.5l-5,5" transform="translate(19 5)" fill="none" stroke="#7b5555" stroke-linecap="square" stroke-miterlimit="10" stroke-width="0.6"/>
      <path id="直线_8" data-name="直线 8" d="M.5,0V7" transform="translate(3.5 4.5)" fill="none" stroke="#7b5555" stroke-linecap="square" stroke-miterlimit="10" stroke-width="0.6"/>
      <path id="直线_8备份" data-name="直线 8备份" d="M-.5,0V7" transform="translate(16.5 4.5)" fill="none" stroke="#7b5555" stroke-linecap="square" stroke-miterlimit="10" stroke-width="0.6"/>
      <path id="直线_9" data-name="直线 9" d="M0,.5H19" transform="translate(0.5 7.5)" fill="none" stroke="#7b5555" stroke-linecap="square" stroke-miterlimit="10" stroke-width="0.6"/>
      <path id="直线_3" data-name="直线 3" d="M.5,10.5l10-10" transform="translate(1)" fill="none" stroke="#7b5555" stroke-linecap="square" stroke-miterlimit="10" stroke-width="0.6"/>
      <path id="直线_4" data-name="直线 4" d="M9.5,9.5.5.5" transform="translate(9 1)" fill="none" stroke="#7b5555" stroke-linecap="square" stroke-miterlimit="10" stroke-width="0.6"/>
    </g>
    <g id="路径_11" data-name="路径 11" transform="translate(2.698)">
      <path id="蒙版-2" data-name="蒙版" d="M0,10c0,5.523,5.6,10,12.5,10S25,15.523,25,10,19.4,0,12.5,0V10" transform="translate(0)" fill="#6bc4fe"/>
      <g id="路径_11-2" data-name="路径 11" clip-path="url(#clip-path)">
        <path id="路径_11-3" data-name="路径 11" d="M.714,3.706a13.053,13.053,0,0,1,3.13-.545c1.359,0,1.925,2.119,4.09,2.119s2.811-2.34,4.379-2.119,2.173,2.119,4.309,2.119,2.625-2.119,4.9-2.119,2.444,2.447,4.953,2.447S29.253.154,29.253.154L0,0Z" transform="translate(-3.207 10)" fill="#ffc37b" stroke="#7b5555" stroke-miterlimit="10" stroke-width="0.6"/>
      </g>
    </g>
    <path id="路径" d="M0,10c0,5.523,5.6,10,12.5,10S25,15.523,25,10,19.4,0,12.5,0V10" transform="translate(2.698)" fill="none" stroke="#7b5555" stroke-miterlimit="10" stroke-width="0.6"/>
    <path id="路径-2" data-name="路径" d="M0,0H.7a2,2,0,0,1,2,2V3.954" transform="translate(0 6.2)" fill="none" stroke="#7b5555" stroke-linecap="round" stroke-miterlimit="10" stroke-width="0.6"/>
    <path id="路径_8" data-name="路径 8" d="M0,.5H25" transform="translate(2.698 9.5)" fill="none" stroke="#7b5555" stroke-miterlimit="10" stroke-width="0.6"/>
    <path id="路径_9" data-name="路径 9" d="M0,9.076,4.6,0" transform="translate(15.198 0.924)" fill="none" stroke="#7b5555" stroke-miterlimit="10" stroke-width="0.6"/>
    <path id="路径_10" data-name="路径 10" d="M0,5.583,10.337,0" transform="translate(15.198 4.417)" fill="none" stroke="#7b5555" stroke-miterlimit="10" stroke-width="0.6"/>
  </g>
</svg>
