<svg id="客服" xmlns="http://www.w3.org/2000/svg" xmlns:xlink="http://www.w3.org/1999/xlink" width="50" height="49" viewBox="0 0 50 49">
  <defs>
    <linearGradient id="linear-gradient" x1="0.5" x2="0.5" y2="1" gradientUnits="objectBoundingBox">
      <stop offset="0" stop-color="#60a9ff"/>
      <stop offset="1" stop-color="#147dff"/>
    </linearGradient>
    <clipPath id="clip-path">
      <path id="蒙版" d="M18,24c9.941,0,17.972-2.185,18-5.78A18.111,18.111,0,0,0,18,0,18.111,18.111,0,0,0,0,18.22C-.053,21.621,8.059,24,18,24Z" fill="url(#linear-gradient)"/>
    </clipPath>
    <linearGradient id="linear-gradient-3" x1="0.5" x2="0.5" y2="1" gradientUnits="objectBoundingBox">
      <stop offset="0" stop-color="#73b4ff"/>
      <stop offset="1" stop-color="#0977ff"/>
    </linearGradient>
    <filter id="椭圆形" x="11.75" y="3.75" width="28.5" height="28.5" filterUnits="userSpaceOnUse">
      <feOffset dy="1" input="SourceAlpha"/>
      <feGaussianBlur stdDeviation="0.75" result="blur"/>
      <feFlood flood-color="#2c67af"/>
      <feComposite operator="in" in2="blur"/>
      <feComposite in="SourceGraphic"/>
    </filter>
    <linearGradient id="linear-gradient-4" x1="0.5" x2="0.5" y2="1" gradientUnits="objectBoundingBox">
      <stop offset="0" stop-color="#77b6ff"/>
      <stop offset="1" stop-color="#3c94ff"/>
    </linearGradient>
    <linearGradient id="linear-gradient-7" x1="0.5" x2="0.5" y2="1" gradientUnits="objectBoundingBox">
      <stop offset="0" stop-color="#79b7ff"/>
      <stop offset="1" stop-color="#2b8aff"/>
    </linearGradient>
    <linearGradient id="linear-gradient-8" x1="0.5" x2="0.5" y2="1" gradientUnits="objectBoundingBox">
      <stop offset="0" stop-color="#89cdff"/>
      <stop offset="1" stop-color="#509efe"/>
    </linearGradient>
  </defs>
  <g id="椭圆形-2" data-name="椭圆形" transform="translate(8 25)">
    <path id="蒙版-2" data-name="蒙版" d="M18,24c9.941,0,17.972-2.185,18-5.78A18.111,18.111,0,0,0,18,0,18.111,18.111,0,0,0,0,18.22C-.053,21.621,8.059,24,18,24Z" fill="url(#linear-gradient)"/>
    <g id="椭圆形-3" data-name="椭圆形" clip-path="url(#clip-path)">
      <g transform="matrix(1, 0, 0, 1, -8, -25)" filter="url(#椭圆形)">
        <circle id="椭圆形-4" data-name="椭圆形" cx="12" cy="12" r="12" transform="translate(14 5)" fill="url(#linear-gradient-3)"/>
      </g>
    </g>
  </g>
  <circle id="椭圆形-5" data-name="椭圆形" cx="3.5" cy="3.5" r="3.5" transform="translate(0 23)" fill="url(#linear-gradient-4)"/>
  <circle id="椭圆形备份_37" data-name="椭圆形备份 37" cx="1.5" cy="1.5" r="1.5" transform="translate(47 37)" fill="url(#linear-gradient-4)"/>
  <circle id="椭圆形备份_38" data-name="椭圆形备份 38" cx="2.5" cy="2.5" r="2.5" transform="translate(44)" fill="url(#linear-gradient-4)"/>
  <circle id="椭圆形备份_36" data-name="椭圆形备份 36" cx="12" cy="12" r="12" transform="translate(14 5)" fill="url(#linear-gradient-7)"/>
  <path id="形状结合" d="M30.875,19.791h0l.093-8.161a9.5,9.5,0,0,0-2.99-6.565A9.5,9.5,0,0,0,21.448,2,17.391,17.391,0,0,0,9.2,7.3,17.393,17.393,0,0,0,4.092,19.634l-1.53-.316a3.838,3.838,0,0,1-.09-7.207A14.976,14.976,0,0,1,7.708,3.467a15.56,15.56,0,0,1,19.583,0,14.975,14.975,0,0,1,5.236,8.643,3.838,3.838,0,0,1-.388,7.3l0,.014,0,.009-1.256.359Z" transform="translate(8.5 1)" fill="url(#linear-gradient-8)"/>
</svg>
