<svg id="尿裤湿巾" xmlns="http://www.w3.org/2000/svg" width="30" height="25.477" viewBox="0 0 30 25.477">
  <g id="椭圆形" fill="#f4d5da" stroke="#567c8f" stroke-miterlimit="10" stroke-width="0.5">
    <circle cx="1.5" cy="1.5" r="1.5" stroke="none"/>
    <circle cx="1.5" cy="1.5" r="1.25" fill="none"/>
  </g>
  <g id="椭圆形备份_12" data-name="椭圆形备份 12" transform="translate(3)" fill="#f4d5da" stroke="#567c8f" stroke-miterlimit="10" stroke-width="0.5">
    <circle cx="1.5" cy="1.5" r="1.5" stroke="none"/>
    <circle cx="1.5" cy="1.5" r="1.25" fill="none"/>
  </g>
  <g id="椭圆形备份_13" data-name="椭圆形备份 13" transform="translate(6)" fill="#f4d5da" stroke="#567c8f" stroke-miterlimit="10" stroke-width="0.5">
    <circle cx="1.5" cy="1.5" r="1.5" stroke="none"/>
    <circle cx="1.5" cy="1.5" r="1.25" fill="none"/>
  </g>
  <g id="椭圆形备份_14" data-name="椭圆形备份 14" transform="translate(9)" fill="#f4d5da" stroke="#567c8f" stroke-miterlimit="10" stroke-width="0.5">
    <circle cx="1.5" cy="1.5" r="1.5" stroke="none"/>
    <circle cx="1.5" cy="1.5" r="1.25" fill="none"/>
  </g>
  <g id="椭圆形备份_15" data-name="椭圆形备份 15" transform="translate(12)" fill="#f4d5da" stroke="#567c8f" stroke-miterlimit="10" stroke-width="0.5">
    <circle cx="1.5" cy="1.5" r="1.5" stroke="none"/>
    <circle cx="1.5" cy="1.5" r="1.25" fill="none"/>
  </g>
  <g id="椭圆形备份_16" data-name="椭圆形备份 16" transform="translate(15)" fill="#f4d5da" stroke="#567c8f" stroke-miterlimit="10" stroke-width="0.5">
    <circle cx="1.5" cy="1.5" r="1.5" stroke="none"/>
    <circle cx="1.5" cy="1.5" r="1.25" fill="none"/>
  </g>
  <g id="椭圆形备份_17" data-name="椭圆形备份 17" transform="translate(18)" fill="#f4d5da" stroke="#567c8f" stroke-miterlimit="10" stroke-width="0.5">
    <circle cx="1.5" cy="1.5" r="1.5" stroke="none"/>
    <circle cx="1.5" cy="1.5" r="1.25" fill="none"/>
  </g>
  <g id="椭圆形备份_18" data-name="椭圆形备份 18" transform="translate(21)" fill="#f4d5da" stroke="#567c8f" stroke-miterlimit="10" stroke-width="0.5">
    <circle cx="1.5" cy="1.5" r="1.5" stroke="none"/>
    <circle cx="1.5" cy="1.5" r="1.25" fill="none"/>
  </g>
  <g id="椭圆形备份_19" data-name="椭圆形备份 19" transform="translate(24)" fill="#f4d5da" stroke="#567c8f" stroke-miterlimit="10" stroke-width="0.5">
    <circle cx="1.5" cy="1.5" r="1.5" stroke="none"/>
    <circle cx="1.5" cy="1.5" r="1.25" fill="none"/>
  </g>
  <g id="椭圆形备份_20" data-name="椭圆形备份 20" transform="translate(27)" fill="#f4d5da" stroke="#567c8f" stroke-miterlimit="10" stroke-width="0.5">
    <circle cx="1.5" cy="1.5" r="1.5" stroke="none"/>
    <circle cx="1.5" cy="1.5" r="1.25" fill="none"/>
  </g>
  <path id="路径_13" data-name="路径 13" d="M0,.219,8.9,11.8H19.356L28.839,0Z" transform="translate(0.68 13.378)" fill="#d6fff6" stroke="#567c8f" stroke-linejoin="round" stroke-miterlimit="10" stroke-width="0.6"/>
  <path id="路径_15" data-name="路径 15" d="M0,0S5.4,1.416,7.636,5.744s.669,7.433.669,7.433l9.5-.06a11.565,11.565,0,0,1,1.106-7.373C20.865,2.467,25.406,0,25.406,0Z" transform="translate(2 12)" fill="#ffd4d3" stroke="#567c8f" stroke-linejoin="round" stroke-miterlimit="10" stroke-width="0.5"/>
  <g id="矩形" transform="translate(0 1)" fill="#83ccfe" stroke="#567c8f" stroke-miterlimit="10" stroke-width="0.6">
    <rect width="30" height="13" rx="1" stroke="none"/>
    <rect x="0.3" y="0.3" width="29.4" height="12.4" rx="0.7" fill="none"/>
  </g>
  <g id="矩形-2" data-name="矩形" transform="translate(0 4)" fill="#f5a3bc" stroke="#567c8f" stroke-miterlimit="10" stroke-width="0.6">
    <path d="M0,0H8a3,3,0,0,1,3,3V3A3,3,0,0,1,8,6H0A0,0,0,0,1,0,6V0A0,0,0,0,1,0,0Z" stroke="none"/>
    <path d="M.6.3H8A2.7,2.7,0,0,1,10.7,3V3A2.7,2.7,0,0,1,8,5.7H.6a.3.3,0,0,1-.3-.3V.6A.3.3,0,0,1,.6.3Z" fill="none"/>
  </g>
  <g id="矩形备份_5" data-name="矩形备份 5" transform="translate(19 4)" fill="#f5a3bc" stroke="#567c8f" stroke-miterlimit="10" stroke-width="0.6">
    <path d="M3,0h8a0,0,0,0,1,0,0V6a0,0,0,0,1,0,0H3A3,3,0,0,1,0,3V3A3,3,0,0,1,3,0Z" stroke="none"/>
    <path d="M3,.3h7.4a.3.3,0,0,1,.3.3V5.4a.3.3,0,0,1-.3.3H3A2.7,2.7,0,0,1,.3,3V3A2.7,2.7,0,0,1,3,.3Z" fill="none"/>
  </g>
  <g id="椭圆形-2" data-name="椭圆形" transform="translate(6 5)" fill="#f0d0ba" stroke="#979797" stroke-miterlimit="10" stroke-width="0.5">
    <circle cx="2" cy="2" r="2" stroke="none"/>
    <circle cx="2" cy="2" r="1.75" fill="none"/>
  </g>
  <g id="椭圆形备份_11" data-name="椭圆形备份 11" transform="translate(20 5)" fill="#f0d0ba" stroke="#979797" stroke-miterlimit="10" stroke-width="0.5">
    <circle cx="2" cy="2" r="2" stroke="none"/>
    <circle cx="2" cy="2" r="1.75" fill="none"/>
  </g>
</svg>
