<svg id="已完成" xmlns="http://www.w3.org/2000/svg" width="20" height="18.654" viewBox="0 0 20 18.654">
  <g id="矩形" transform="translate(0 0)" fill="#fff" stroke-linejoin="round" stroke-miterlimit="10">
    <path d="M 12.96099185943604 17.53348731994629 C 12.47552967071533 17.16637992858887 11.55199241638184 16.25616645812988 10.75294971466064 15.34193325042725 L 10.45411014556885 15.00000381469727 L 10 15.00000381469727 L 4 15.00000381469727 C 2.345789909362793 15.00000381469727 1 13.65421390533447 1 12.00000381469727 L 1 4.000003337860107 C 1 2.345793485641479 2.345789909362793 1.000003576278687 4 1.000003576278687 L 16 1.000003576278687 C 17.65420913696289 1.000003576278687 19 2.345793485641479 19 4.000003337860107 L 19 12.00000381469727 C 19 13.65421390533447 17.65420913696289 15.00000381469727 16 15.00000381469727 L 15.42249011993408 15.00000381469727 L 14.8828296661377 15.00000381469727 L 14.58660984039307 15.45109367370605 C 14.02949047088623 16.29868698120117 13.35197257995605 17.15916442871094 12.96099185943604 17.53348731994629 Z" stroke="none"/>
    <path d="M 4 2.000003814697266 C 2.897199630737305 2.000003814697266 2 2.89720344543457 2 4.000003814697266 L 2 12.00000381469727 C 2 13.10280418395996 2.897199630737305 14.00000381469727 4 14.00000381469727 L 10 14.00000381469727 C 10.57711982727051 14.00000381469727 11.1261100769043 14.24930381774902 11.50590991973877 14.68385314941406 C 11.94296264648438 15.18391990661621 12.44848346710205 15.71237850189209 12.87062454223633 16.12013626098633 C 13.15783309936523 15.75636577606201 13.47904586791992 15.31511497497559 13.75073051452637 14.90218353271484 C 14.12049007415771 14.33911323547363 14.74885940551758 14.00000381469727 15.42249011993408 14.00000381469727 L 16 14.00000381469727 C 17.1028003692627 14.00000381469727 18 13.10280418395996 18 12.00000381469727 L 18 4.000003814697266 C 18 2.89720344543457 17.1028003692627 2.000003814697266 16 2.000003814697266 L 4 2.000003814697266 M 4 3.814697265625e-06 L 16 3.814697265625e-06 C 18.20914077758789 3.814697265625e-06 20 1.790863037109375 20 4.000003814697266 L 20 12.00000381469727 C 20 14.20914363861084 18.20914077758789 16.00000381469727 16 16.00000381469727 L 15.42249011993408 16.00000381469727 C 15.42249011993408 16.00000381469727 13.67957019805908 18.65412330627441 12.99962043762207 18.65412330627441 C 12.31968021392822 18.65412330627441 10 16.00000381469727 10 16.00000381469727 L 4 16.00000381469727 C 1.790859222412109 16.00000381469727 0 14.20914363861084 0 12.00000381469727 L 0 4.000003814697266 C 0 1.790863037109375 1.790859222412109 3.814697265625e-06 4 3.814697265625e-06 Z" stroke="none" fill="#4a4a4a"/>
  </g>
  <path id="直线_13" data-name="直线 13" d="M.5.5h10" transform="translate(4.5 4.5)" fill="none" stroke="#4a4a4a" stroke-linecap="round" stroke-miterlimit="10" stroke-width="2"/>
  <path id="直线_13备份" data-name="直线 13备份" d="M.5.5h5" transform="translate(4.5 8.5)" fill="none" stroke="#4a4a4a" stroke-linecap="round" stroke-miterlimit="10" stroke-width="2"/>
</svg>
