<svg xmlns="http://www.w3.org/2000/svg" xmlns:xlink="http://www.w3.org/1999/xlink" width="61" height="52" viewBox="0 0 61 52">
  <defs>
    <linearGradient id="linear-gradient" x1="0.5" x2="0.5" y2="1" gradientUnits="objectBoundingBox">
      <stop offset="0" stop-color="#ff859b"/>
      <stop offset="1" stop-color="#ff6382"/>
      <stop offset="1" stop-color="#fe3042"/>
    </linearGradient>
    <filter id="_" x="21" y="0" width="40" height="52" filterUnits="userSpaceOnUse">
      <feOffset dx="1" dy="2" input="SourceAlpha"/>
      <feGaussianBlur stdDeviation="1" result="blur"/>
      <feFlood flood-color="#e07a8d"/>
      <feComposite operator="in" in2="blur"/>
      <feComposite in="SourceGraphic"/>
    </filter>
    <linearGradient id="linear-gradient-2" x1="0.5" x2="0.5" y2="1" gradientUnits="objectBoundingBox">
      <stop offset="0" stop-color="#ff859b"/>
      <stop offset="1" stop-color="#ff6583"/>
    </linearGradient>
  </defs>
  <g id="常见问题" transform="translate(0 1)">
    <path id="椭圆形" d="M21.5,42.67A21.583,21.583,0,0,0,29.6,41.1c1.1-.445,5.752,2.423,6.753,1.811.958-.586-1.727-4.645-.877-5.368A21.3,21.3,0,0,0,21.5,0a21.336,21.336,0,1,0,0,42.67Z" transform="translate(9 4.341)" fill="url(#linear-gradient)"/>
    <g transform="matrix(1, 0, 0, 1, 0, -1)" filter="url(#_)">
      <text id="_2" data-name="？" transform="translate(23 38)" fill="#fff" font-size="34" font-family="YuGothicUI-Regular, Yu Gothic UI" letter-spacing="0.04em"><tspan x="0" y="0">？</tspan></text>
    </g>
    <circle id="椭圆形-2" data-name="椭圆形" cx="4" cy="4" r="4" transform="translate(0 37)" fill="url(#linear-gradient-2)"/>
    <circle id="椭圆形备份_45" data-name="椭圆形备份 45" cx="3" cy="3" r="3" transform="translate(55 31)" fill="url(#linear-gradient-2)"/>
    <circle id="椭圆形备份_46" data-name="椭圆形备份 46" cx="2" cy="2" r="2" transform="translate(17)" fill="url(#linear-gradient-2)"/>
  </g>
</svg>
