<svg xmlns="http://www.w3.org/2000/svg" width="21.55" height="18.09" viewBox="0 0 21.55 18.09">
  <g id="待支付备份" transform="translate(0.907 0.907)">
    <path id="Stroke_27" data-name="Stroke 27" d="M16.233,16.275H3.5a3.512,3.512,0,0,1-3.5-3.5V3.5A3.513,3.513,0,0,1,3.5,0H16.233a3.513,3.513,0,0,1,3.5,3.5v9.27A3.513,3.513,0,0,1,16.233,16.275Z" fill="none" stroke="#9d9d9d" stroke-linecap="round" stroke-miterlimit="10" stroke-width="1.814"/>
    <path id="Stroke_29" data-name="Stroke 29" d="M10.515,5.755H2.878A2.877,2.877,0,1,1,2.878,0h7.638Z" transform="translate(9.22 5.872)" fill="none" stroke="#9d9d9d" stroke-linecap="round" stroke-miterlimit="10" stroke-width="1.814"/>
    <path id="Fill_31" data-name="Fill 31" d="M1.673.837A.837.837,0,1,1,.837,0a.836.836,0,0,1,.837.837" transform="translate(11.205 7.913)" fill="#9d9d9d"/>
  </g>
</svg>
