<svg xmlns="http://www.w3.org/2000/svg" width="22.448" height="18.843" viewBox="0 0 22.448 18.843">
  <g id="待支付" transform="translate(0.945 0.945)">
    <path id="Stroke_27" data-name="Stroke 27" d="M16.909,16.953H3.648A3.658,3.658,0,0,1,0,13.3V3.649A3.659,3.659,0,0,1,3.648,0H16.909a3.66,3.66,0,0,1,3.649,3.649V13.3A3.659,3.659,0,0,1,16.909,16.953Z" fill="none" stroke="#4a4a4a" stroke-linecap="round" stroke-miterlimit="10" stroke-width="1.89"/>
    <path id="Stroke_29" data-name="Stroke 29" d="M10.954,5.994H3A3,3,0,1,1,3,0h7.956Z" transform="translate(9.604 6.117)" fill="none" stroke="#4a4a4a" stroke-linecap="round" stroke-miterlimit="10" stroke-width="1.89"/>
    <path id="Fill_31" data-name="Fill 31" d="M1.743.872A.872.872,0,1,1,.872,0a.871.871,0,0,1,.872.872" transform="translate(11.672 8.243)" fill="#4a4a4a"/>
  </g>
</svg>
