<svg id="待收货" xmlns="http://www.w3.org/2000/svg" width="22" height="19" viewBox="0 0 22 19">
  <g id="矩形备份_9" data-name="矩形备份 9" transform="translate(9 4)" fill="none" stroke="#4a4a4a" stroke-miterlimit="10" stroke-width="2">
    <path d="M9.9,0h0A3.1,3.1,0,0,1,13,3.1v8.048A1.857,1.857,0,0,1,11.143,13H1.857A1.857,1.857,0,0,1,0,11.143V9.9A9.9,9.9,0,0,1,9.9,0Z" stroke="none"/>
    <path d="M9.684,1h0A2.316,2.316,0,0,1,12,3.316v7.526A1.158,1.158,0,0,1,10.842,12H2.158A1.158,1.158,0,0,1,1,10.842V9.684A8.684,8.684,0,0,1,9.684,1Z" fill="none"/>
  </g>
  <g id="矩形" fill="#fff" stroke="#4a4a4a" stroke-miterlimit="10" stroke-width="2">
    <rect width="16" height="17" rx="4" stroke="none"/>
    <rect x="1" y="1" width="14" height="15" rx="3" fill="none"/>
  </g>
  <g id="椭圆形" transform="translate(3 13)" fill="#fff" stroke="#4a4a4a" stroke-miterlimit="10" stroke-width="2">
    <circle cx="3" cy="3" r="3" stroke="none"/>
    <circle cx="3" cy="3" r="2" fill="none"/>
  </g>
  <g id="椭圆形备份_25" data-name="椭圆形备份 25" transform="translate(14 13)" fill="#fff" stroke="#4a4a4a" stroke-miterlimit="10" stroke-width="2">
    <circle cx="3" cy="3" r="3" stroke="none"/>
    <circle cx="3" cy="3" r="2" fill="none"/>
  </g>
</svg>
