<svg id="意见反馈" xmlns="http://www.w3.org/2000/svg" xmlns:xlink="http://www.w3.org/1999/xlink" width="54" height="49" viewBox="0 0 54 49">
  <defs>
    <linearGradient id="linear-gradient" x1="0.5" x2="0.5" y2="1" gradientUnits="objectBoundingBox">
      <stop offset="0" stop-color="#9ad7fd"/>
      <stop offset="1" stop-color="#4796fd"/>
    </linearGradient>
    <linearGradient id="linear-gradient-2" x1="0.179" y1="0.066" x2="0.83" y2="0.933" gradientUnits="objectBoundingBox">
      <stop offset="0" stop-color="#9ecfff"/>
      <stop offset="1" stop-color="#e0f2ff"/>
    </linearGradient>
    <clipPath id="clip-path">
      <path id="蒙版" d="M0,3A3,3,0,0,1,3,0H31a3,3,0,0,1,3,3V31.061L25.031,41H3a3,3,0,0,1-3-3Z" fill="url(#linear-gradient)"/>
    </clipPath>
    <linearGradient id="linear-gradient-4" x1="0.349" x2="0.621" y2="0.619" gradientUnits="objectBoundingBox">
      <stop offset="0" stop-color="#89c4ff"/>
      <stop offset="1" stop-color="#3e9aff"/>
    </linearGradient>
    <linearGradient id="linear-gradient-5" x1="0.5" x2="0.5" y2="1" gradientUnits="objectBoundingBox">
      <stop offset="0" stop-color="#95d3fd"/>
      <stop offset="1" stop-color="#5ba6fd"/>
    </linearGradient>
  </defs>
  <rect id="矩形" width="29" height="38" rx="4" transform="translate(7 5)" opacity="0.519" fill="url(#linear-gradient-2)"/>
  <g id="矩形-2" data-name="矩形" transform="translate(11 8)">
    <path id="蒙版-2" data-name="蒙版" d="M0,3A3,3,0,0,1,3,0H31a3,3,0,0,1,3,3V31.061L25.031,41H3a3,3,0,0,1-3-3Z" fill="url(#linear-gradient)"/>
    <g id="矩形-3" data-name="矩形" clip-path="url(#clip-path)">
      <rect id="矩形-4" data-name="矩形" width="12" height="15" rx="2" transform="translate(25 31)" fill="url(#linear-gradient-4)"/>
    </g>
  </g>
  <rect id="矩形-5" data-name="矩形" width="22" height="2" rx="1" transform="translate(17 16)" fill="#fff"/>
  <rect id="矩形备份_16" data-name="矩形备份 16" width="22" height="2" rx="1" transform="translate(17 21)" fill="#fff"/>
  <rect id="矩形备份_17" data-name="矩形备份 17" width="16" height="2" rx="1" transform="translate(17 26)" fill="#fff"/>
  <circle id="椭圆形" cx="4" cy="4" r="4" transform="translate(0 27)" fill="url(#linear-gradient-5)"/>
  <circle id="椭圆形备份_49" data-name="椭圆形备份 49" cx="3" cy="3" r="3" transform="translate(48 40)" fill="url(#linear-gradient-5)"/>
  <circle id="椭圆形备份_50" data-name="椭圆形备份 50" cx="2" cy="2" r="2" transform="translate(38)" fill="url(#linear-gradient-5)"/>
</svg>
