<svg id="推广奖励" xmlns="http://www.w3.org/2000/svg" xmlns:xlink="http://www.w3.org/1999/xlink" width="58" height="42.081" viewBox="0 0 58 42.081">
  <defs>
    <linearGradient id="linear-gradient" x1="0.369" y1="0.701" x2="0.5" y2="1" gradientUnits="objectBoundingBox">
      <stop offset="0" stop-color="#fd5c4c"/>
      <stop offset="1" stop-color="#fe5747"/>
    </linearGradient>
    <clipPath id="clip-path">
      <path id="蒙版" d="M6.072,3.9A4,4,0,0,1,9.614.824l5.8-.516a4,4,0,0,1,4.247,3.06l5.174,21.789a4,4,0,0,1-3.892,4.924H5.034a4,4,0,0,1-3.9-4.9Z" fill="url(#linear-gradient)"/>
    </clipPath>
    <filter id="椭圆形" x="13.5" y="-0.5" width="33" height="33" filterUnits="userSpaceOnUse">
      <feOffset dy="1" input="SourceAlpha"/>
      <feGaussianBlur stdDeviation="0.5" result="blur"/>
      <feFlood flood-color="#d13b2b"/>
      <feComposite operator="in" in2="blur"/>
      <feComposite in="SourceGraphic"/>
    </filter>
    <linearGradient id="linear-gradient-3" x1="0.5" x2="0.5" y2="1" gradientUnits="objectBoundingBox">
      <stop offset="0" stop-color="#f99486"/>
      <stop offset="1" stop-color="#f4503f"/>
    </linearGradient>
    <linearGradient id="linear-gradient-4" x1="0.5" x2="0.5" y2="1" gradientUnits="objectBoundingBox">
      <stop offset="0" stop-color="#ffccc8"/>
      <stop offset="1" stop-color="#ff7263"/>
    </linearGradient>
  </defs>
  <path id="形状结合" d="M6.041,34a4,4,0,0,1-3.9-4.91l2.035-8.72a11.5,11.5,0,1,1,13.726.681l1.916,8.019A4,4,0,0,1,15.932,34Z" transform="translate(8 7)" fill="#fcc1bf"/>
  <path id="形状结合备份" d="M6.041,34a4,4,0,0,1-3.9-4.91l2.035-8.72a11.5,11.5,0,1,1,13.726.681l1.916,8.019A4,4,0,0,1,15.932,34Z" transform="translate(29 7)" fill="#fcc1bf"/>
  <g id="椭圆形-2" data-name="椭圆形" transform="translate(17 12)">
    <path id="蒙版-2" data-name="蒙版" d="M6.072,3.9A4,4,0,0,1,9.614.824l5.8-.516a4,4,0,0,1,4.247,3.06l5.174,21.789a4,4,0,0,1-3.892,4.924H5.034a4,4,0,0,1-3.9-4.9Z" fill="url(#linear-gradient)"/>
    <g id="椭圆形-3" data-name="椭圆形" clip-path="url(#clip-path)">
      <g transform="matrix(1, 0, 0, 1, -17, -12)" filter="url(#椭圆形)">
        <circle id="椭圆形-4" data-name="椭圆形" cx="15" cy="15" r="15" transform="translate(15)" fill="none"/>
      </g>
    </g>
  </g>
  <circle id="椭圆形备份_26" data-name="椭圆形备份 26" cx="15" cy="15" r="15" transform="translate(15)" fill="url(#linear-gradient-3)"/>
  <path id="椭圆形-5" data-name="椭圆形" d="M6.005,6.061c3.311,0,5.973-2.3,5.995-4.721C11.975-.373,0-.555,0,1.446-.024,3.741,2.695,6.061,6.005,6.061Z" transform="translate(24 18.668)" fill="#f7f7f7"/>
  <circle id="椭圆形-6" data-name="椭圆形" cx="3.5" cy="3.5" r="3.5" transform="translate(0 29)" fill="url(#linear-gradient-4)"/>
  <circle id="椭圆形备份_28" data-name="椭圆形备份 28" cx="2.5" cy="2.5" r="2.5" transform="translate(53 27)" fill="url(#linear-gradient-4)"/>
  <circle id="椭圆形备份_29" data-name="椭圆形备份 29" cx="1.5" cy="1.5" r="1.5" transform="translate(47 3)" fill="url(#linear-gradient-4)"/>
</svg>
