<svg xmlns="http://www.w3.org/2000/svg" width="22.536" height="21.525" viewBox="0 0 22.536 21.525">
  <g id="收藏" transform="translate(0.768 0.75)">
    <path id="Fill_1" data-name="Fill 1" d="M11.791.8l2.13,4.291A1.439,1.439,0,0,0,15,5.872l4.762.688A1.429,1.429,0,0,1,20.564,9l-3.446,3.34a1.426,1.426,0,0,0-.414,1.267l.813,4.716a1.437,1.437,0,0,1-2.088,1.508L11.17,17.606a1.446,1.446,0,0,0-1.339,0l-4.26,2.227a1.437,1.437,0,0,1-2.088-1.508L4.3,13.608a1.426,1.426,0,0,0-.414-1.267L.436,9a1.429,1.429,0,0,1,.8-2.441L6,5.872A1.439,1.439,0,0,0,7.08,5.089L9.21.8a1.443,1.443,0,0,1,2.581,0" fill="none" stroke="#4a4a4a" stroke-miterlimit="10" stroke-width="1.5"/>
  </g>
</svg>
