<svg xmlns="http://www.w3.org/2000/svg" width="16" height="29.895" viewBox="0 0 16 29.895">
  <g id="毛发护理" transform="translate(0 0.6)">
    <rect id="矩形" width="6" height="6" rx="1" transform="translate(5 4.295)" fill="#171717"/>
    <g id="矩形-2" data-name="矩形" transform="translate(0 7.295)" fill="#b8cd0c" stroke="#465105" stroke-miterlimit="10" stroke-width="0.6">
      <path d="M4,0h8a4,4,0,0,1,4,4V19a3,3,0,0,1-3,3H3a3,3,0,0,1-3-3V4A4,4,0,0,1,4,0Z" stroke="none"/>
      <path d="M4,.3h8A3.7,3.7,0,0,1,15.7,4V19A2.7,2.7,0,0,1,13,21.7H3A2.7,2.7,0,0,1,.3,19V4A3.7,3.7,0,0,1,4,.3Z" fill="none"/>
    </g>
    <path id="路径_5" data-name="路径 5" d="M0,0H3.864a1.408,1.408,0,0,1,.86.481C5.058.9,5,6.192,5,6.192" transform="translate(3.667 0)" fill="none" stroke="#181818" stroke-miterlimit="10" stroke-width="1.2"/>
    <rect id="矩形-3" data-name="矩形" width="14.8" height="9" transform="translate(0.6 13)" fill="#fff"/>
    <path id="路径_6" data-name="路径 6" d="M2.512,0a10.305,10.305,0,0,1-.866,1.859C1.031,2.922,0,3.112,0,5.325A25.082,25.082,0,0,0,.251,8,6.987,6.987,0,0,0,2.512,6.078C3.488,4.779,2.512,0,2.512,0Z" transform="matrix(0.848, 0.53, -0.53, 0.848, 9.348, 12.813)" fill="#b8cd0c" stroke="#b8cd0c" stroke-miterlimit="10" stroke-width="0.6"/>
  </g>
</svg>
