<svg xmlns="http://www.w3.org/2000/svg" xmlns:xlink="http://www.w3.org/1999/xlink" width="51.8" height="53.2" viewBox="0 0 51.8 53.2">
  <defs>
    <linearGradient id="linear-gradient" x1="0.192" y1="0.095" x2="0.822" y2="0.869" gradientUnits="objectBoundingBox">
      <stop offset="0" stop-color="#ffdb6a"/>
      <stop offset="1" stop-color="#ffb422"/>
    </linearGradient>
    <linearGradient id="linear-gradient-2" x1="0.192" y1="0.095" x2="0.822" y2="0.869" gradientUnits="objectBoundingBox">
      <stop offset="0" stop-color="#ffd860"/>
      <stop offset="1" stop-color="#ffb422"/>
    </linearGradient>
    <linearGradient id="linear-gradient-3" x1="0.157" y1="0.14" x2="0.842" y2="0.849" gradientUnits="objectBoundingBox">
      <stop offset="0" stop-color="#ffe6a3"/>
      <stop offset="1" stop-color="#ffcd69"/>
    </linearGradient>
    <filter id="椭圆形" x="21.9" y="17.7" width="9.3" height="9.3" filterUnits="userSpaceOnUse">
      <feOffset dx="1" dy="1" input="SourceAlpha"/>
      <feGaussianBlur stdDeviation="0.5" result="blur"/>
      <feFlood flood-color="#ffebc3"/>
      <feComposite operator="in" in2="blur"/>
      <feComposite in="SourceGraphic"/>
    </filter>
  </defs>
  <g id="爆款精选备份" transform="translate(6.3)">
    <rect id="矩形备份_10" data-name="矩形备份 10" width="26.6" height="21" rx="7.7" transform="translate(6.3 19.6)" fill="url(#linear-gradient)"/>
    <rect id="矩形" width="39.2" height="39.2" rx="13.3" fill="url(#linear-gradient-2)"/>
    <path id="矩形-2" data-name="矩形" d="M0,3.9l5.652,2.98L10.85,0l5.457,6.882L21.7,3.9,19.892,17.269A3.5,3.5,0,0,1,16.424,20.3H4.973A3.5,3.5,0,0,1,1.5,17.191Z" transform="translate(8.4 10.5)" fill="#fff"/>
    <g id="椭圆形-2" data-name="椭圆形" transform="translate(7 13.3)" fill="#ffe7a6" stroke="#fff" stroke-miterlimit="10" stroke-width="0.7">
      <circle cx="1.75" cy="1.75" r="1.75" stroke="none"/>
      <circle cx="1.75" cy="1.75" r="1.4" fill="none"/>
    </g>
    <g id="椭圆形备份_34" data-name="椭圆形备份 34" transform="translate(17.5 9.1)" fill="#ffe7a6" stroke="#fff" stroke-miterlimit="10" stroke-width="0.7">
      <circle cx="1.75" cy="1.75" r="1.75" stroke="none"/>
      <circle cx="1.75" cy="1.75" r="1.4" fill="none"/>
    </g>
    <g id="椭圆形备份_35" data-name="椭圆形备份 35" transform="translate(28 13.3)" fill="#ffe7a6" stroke="#fff" stroke-miterlimit="10" stroke-width="0.7">
      <circle cx="1.75" cy="1.75" r="1.75" stroke="none"/>
      <circle cx="1.75" cy="1.75" r="1.4" fill="none"/>
    </g>
    <g transform="matrix(1, 0, 0, 1, -6.3, 0)" filter="url(#椭圆形)">
      <circle id="椭圆形-3" data-name="椭圆形" cx="3.15" cy="3.15" r="3.15" transform="translate(22.4 18.2)" opacity="0.952" fill="url(#linear-gradient-3)"/>
    </g>
    <rect id="矩形-3" data-name="矩形" width="11.2" height="1.4" rx="0.7" transform="translate(13.3 26.6)" fill="#ffe7ad"/>
  </g>
</svg>
