<svg xmlns="http://www.w3.org/2000/svg" xmlns:xlink="http://www.w3.org/1999/xlink" width="74" height="76" viewBox="0 0 74 76">
  <defs>
    <linearGradient id="linear-gradient" x1="0.192" y1="0.095" x2="0.822" y2="0.869" gradientUnits="objectBoundingBox">
      <stop offset="0" stop-color="#ffdb6a"/>
      <stop offset="1" stop-color="#ffb422"/>
    </linearGradient>
    <linearGradient id="linear-gradient-2" x1="0.192" y1="0.095" x2="0.822" y2="0.869" gradientUnits="objectBoundingBox">
      <stop offset="0" stop-color="#ffd860"/>
      <stop offset="1" stop-color="#ffb422"/>
    </linearGradient>
    <linearGradient id="linear-gradient-3" x1="0.157" y1="0.14" x2="0.842" y2="0.849" gradientUnits="objectBoundingBox">
      <stop offset="0" stop-color="#ffe6a3"/>
      <stop offset="1" stop-color="#ffcd69"/>
    </linearGradient>
    <filter id="椭圆形" x="31.5" y="25.5" width="12" height="12" filterUnits="userSpaceOnUse">
      <feOffset dx="1" dy="1" input="SourceAlpha"/>
      <feGaussianBlur stdDeviation="0.5" result="blur"/>
      <feFlood flood-color="#ffebc3"/>
      <feComposite operator="in" in2="blur"/>
      <feComposite in="SourceGraphic"/>
    </filter>
  </defs>
  <g id="爆款精选" transform="translate(9)">
    <rect id="矩形备份_10" data-name="矩形备份 10" width="38" height="30" rx="11" transform="translate(9 28)" fill="url(#linear-gradient)"/>
    <rect id="矩形" width="56" height="56" rx="19" fill="url(#linear-gradient-2)"/>
    <path id="矩形-2" data-name="矩形" d="M0,5.574,8.074,9.831,15.5,0l7.8,9.831L31,5.574l-2.582,19.1A5,5,0,0,1,23.463,29H7.1a5,5,0,0,1-4.969-4.441Z" transform="translate(12 15)" fill="#fff"/>
    <g id="椭圆形-2" data-name="椭圆形" transform="translate(10 19)" fill="#ffe7a6" stroke="#fff" stroke-miterlimit="10" stroke-width="1">
      <circle cx="2.5" cy="2.5" r="2.5" stroke="none"/>
      <circle cx="2.5" cy="2.5" r="2" fill="none"/>
    </g>
    <g id="椭圆形备份_34" data-name="椭圆形备份 34" transform="translate(25 13)" fill="#ffe7a6" stroke="#fff" stroke-miterlimit="10" stroke-width="1">
      <circle cx="2.5" cy="2.5" r="2.5" stroke="none"/>
      <circle cx="2.5" cy="2.5" r="2" fill="none"/>
    </g>
    <g id="椭圆形备份_35" data-name="椭圆形备份 35" transform="translate(40 19)" fill="#ffe7a6" stroke="#fff" stroke-miterlimit="10" stroke-width="1">
      <circle cx="2.5" cy="2.5" r="2.5" stroke="none"/>
      <circle cx="2.5" cy="2.5" r="2" fill="none"/>
    </g>
    <g transform="matrix(1, 0, 0, 1, -9, 0)" filter="url(#椭圆形)">
      <circle id="椭圆形-3" data-name="椭圆形" cx="4.5" cy="4.5" r="4.5" transform="translate(32 26)" opacity="0.952" fill="url(#linear-gradient-3)"/>
    </g>
    <rect id="矩形-3" data-name="矩形" width="16" height="2" rx="1" transform="translate(19 38)" fill="#ffe7ad"/>
  </g>
</svg>
