<svg xmlns="http://www.w3.org/2000/svg" width="22.544" height="30" viewBox="0 0 22.544 30">
  <g id="玩具" transform="translate(-0.152)">
    <g id="椭圆形" transform="translate(5.652 13.371) rotate(30)" fill="none" stroke="#565656" stroke-miterlimit="10" stroke-width="0.6">
      <ellipse cx="3" cy="5.5" rx="3" ry="5.5" stroke="none"/>
      <ellipse cx="3" cy="5.5" rx="2.7" ry="5.2" fill="none"/>
    </g>
    <g id="椭圆形备份_6" data-name="椭圆形备份 6" transform="translate(12 16.371) rotate(-30)" fill="none" stroke="#565656" stroke-miterlimit="10" stroke-width="0.6">
      <ellipse cx="3" cy="5.5" rx="3" ry="5.5" stroke="none"/>
      <ellipse cx="3" cy="5.5" rx="2.7" ry="5.2" fill="none"/>
    </g>
    <g id="椭圆形-2" data-name="椭圆形" transform="translate(2)" fill="none" stroke="#565656" stroke-miterlimit="10" stroke-width="0.6">
      <circle cx="3.25" cy="3.25" r="3.25" stroke="none"/>
      <circle cx="3.25" cy="3.25" r="2.95" fill="none"/>
    </g>
    <g id="椭圆形备份_8" data-name="椭圆形备份 8" transform="translate(14)" fill="none" stroke="#565656" stroke-miterlimit="10" stroke-width="0.6">
      <circle cx="3.25" cy="3.25" r="3.25" stroke="none"/>
      <circle cx="3.25" cy="3.25" r="2.95" fill="none"/>
    </g>
    <circle id="椭圆形-3" data-name="椭圆形" cx="2" cy="2" r="2" transform="translate(4 2)" fill="#d7e4ef"/>
    <circle id="椭圆形备份_9" data-name="椭圆形备份 9" cx="2" cy="2" r="2" transform="translate(15 2)" fill="#d7e4ef"/>
    <g id="椭圆形-4" data-name="椭圆形" transform="translate(4 14)" fill="#83ccfe" stroke="#565656" stroke-miterlimit="10" stroke-width="0.6">
      <circle cx="7.5" cy="7.5" r="7.5" stroke="none"/>
      <circle cx="7.5" cy="7.5" r="7.2" fill="none"/>
    </g>
    <g id="椭圆形-5" data-name="椭圆形" transform="translate(2 1)" fill="#83ccfe" stroke="#565656" stroke-miterlimit="10" stroke-width="0.6">
      <ellipse cx="9.5" cy="8" rx="9.5" ry="8" stroke="none"/>
      <ellipse cx="9.5" cy="8" rx="9.2" ry="7.7" fill="none"/>
    </g>
    <g id="椭圆形备份_5" data-name="椭圆形备份 5" transform="translate(2.152 23)" fill="#fff" stroke-miterlimit="10">
      <path d="M 2.980258941650391 6.699999809265137 C 1.972869038581848 6.699999809265137 1.241598963737488 6.444310188293457 0.8067390322685242 5.940030097961426 C 0.3522890210151672 5.413020133972168 0.201979011297226 4.606919765472412 0.3599790036678314 3.544110059738159 C 0.5931190252304077 1.975810050964355 1.403908967971802 0.300000011920929 2.980258941650391 0.300000011920929 C 3.636198997497559 0.300000011920929 4.198318958282471 0.6047000288963318 4.650989055633545 1.205629944801331 C 5.072158813476563 1.764739990234375 5.392699241638184 2.557440042495728 5.603699207305908 3.561690092086792 C 5.74661922454834 4.241909980773926 5.801329135894775 5.195250034332275 5.250319004058838 5.874060153961182 C 4.80544900894165 6.422110080718994 4.041688919067383 6.699999809265137 2.980258941650391 6.699999809265137 Z" stroke="none"/>
      <path d="M 2.980258941650391 6.400000095367432 C 3.946878910064697 6.400000095367432 4.632268905639648 6.159440040588379 5.017388820648193 5.684989929199219 C 5.493978977203369 5.097859859466553 5.439629077911377 4.239809989929199 5.31010913848877 3.623369932174683 C 5.111069202423096 2.676069974899292 4.800289154052734 1.902439951896667 4.411368846893311 1.386129975318909 C 4.01288890838623 0.8571500182151794 3.544769048690796 0.6000000238418579 2.980258941650391 0.6000000238418579 C 1.59463906288147 0.6000000238418579 0.8714690208435059 2.143630027770996 0.6567190289497375 3.588229894638062 C 0.5573090314865112 4.256889820098877 0.5420590043067932 5.173709869384766 1.033939003944397 5.744110107421875 C 1.409239053726196 6.179329872131348 2.064069032669067 6.400000095367432 2.980258941650391 6.400000095367432 M 2.980258941650391 7 C 0.4203889966011047 7 -0.2241309881210327 5.433000087738037 0.06323900818824768 3.5 C 0.3505990207195282 1.567000031471252 1.369228959083557 -4.440892098500626e-16 2.980258941650391 -4.440892098500626e-16 C 4.591289043426514 -4.440892098500626e-16 5.491148948669434 1.567000031471252 5.897288799285889 3.5 C 6.303429126739502 5.433000087738037 5.5401291847229 7 2.980258941650391 7 Z" stroke="none" fill="#565656"/>
    </g>
    <g id="椭圆形备份_7" data-name="椭圆形备份 7" transform="translate(15.152 23)" fill="#fff" stroke-miterlimit="10">
      <path d="M 2.980258941650391 6.699999809265137 C 1.972869038581848 6.699999809265137 1.241598963737488 6.444310188293457 0.8067390322685242 5.940030097961426 C 0.3522890210151672 5.413020133972168 0.201979011297226 4.606919765472412 0.3599790036678314 3.544110059738159 C 0.5931190252304077 1.975810050964355 1.403908967971802 0.300000011920929 2.980258941650391 0.300000011920929 C 3.636198997497559 0.300000011920929 4.198318958282471 0.6047000288963318 4.650989055633545 1.205629944801331 C 5.072158813476563 1.764739990234375 5.392699241638184 2.557440042495728 5.603699207305908 3.561690092086792 C 5.74661922454834 4.241909980773926 5.801329135894775 5.195250034332275 5.250319004058838 5.874060153961182 C 4.80544900894165 6.422110080718994 4.041688919067383 6.699999809265137 2.980258941650391 6.699999809265137 Z" stroke="none"/>
      <path d="M 2.980258941650391 6.400000095367432 C 3.946878910064697 6.400000095367432 4.632268905639648 6.159440040588379 5.017388820648193 5.684989929199219 C 5.493978977203369 5.097859859466553 5.439629077911377 4.239809989929199 5.31010913848877 3.623369932174683 C 5.111069202423096 2.676069974899292 4.800289154052734 1.902439951896667 4.411368846893311 1.386129975318909 C 4.01288890838623 0.8571500182151794 3.544769048690796 0.6000000238418579 2.980258941650391 0.6000000238418579 C 1.59463906288147 0.6000000238418579 0.8714690208435059 2.143630027770996 0.6567190289497375 3.588229894638062 C 0.5573090314865112 4.256889820098877 0.5420590043067932 5.173709869384766 1.033939003944397 5.744110107421875 C 1.409239053726196 6.179329872131348 2.064069032669067 6.400000095367432 2.980258941650391 6.400000095367432 M 2.980258941650391 7 C 0.4203889966011047 7 -0.2241309881210327 5.433000087738037 0.06323900818824768 3.5 C 0.3505990207195282 1.567000031471252 1.369228959083557 -4.440892098500626e-16 2.980258941650391 -4.440892098500626e-16 C 4.591289043426514 -4.440892098500626e-16 5.491148948669434 1.567000031471252 5.897288799285889 3.5 C 6.303429126739502 5.433000087738037 5.5401291847229 7 2.980258941650391 7 Z" stroke="none" fill="#565656"/>
    </g>
    <path id="直线_12" data-name="直线 12" d="M.5.5v27" transform="translate(11.152 1)" fill="none" stroke="#707070" stroke-linecap="square" stroke-miterlimit="10" stroke-width="0.5" stroke-dasharray="1"/>
    <g id="椭圆形-6" data-name="椭圆形" transform="translate(7.152 10)" fill="#f4cfb4" stroke="#565656" stroke-miterlimit="10" stroke-width="0.7">
      <ellipse cx="4.5" cy="3.5" rx="4.5" ry="3.5" stroke="none"/>
      <ellipse cx="4.5" cy="3.5" rx="4.15" ry="3.15" fill="none"/>
    </g>
    <ellipse id="椭圆形-7" data-name="椭圆形" cx="1.5" cy="1" rx="1.5" ry="1" transform="translate(10.152 12)" fill="#f5a3ba"/>
    <circle id="椭圆形-8" data-name="椭圆形" cx="1" cy="1" r="1" transform="translate(6.152 7)" fill="#555253"/>
    <circle id="椭圆形备份_10" data-name="椭圆形备份 10" cx="1" cy="1" r="1" transform="translate(15.152 7)" fill="#555253"/>
  </g>
</svg>
