<svg xmlns="http://www.w3.org/2000/svg" width="28.835" height="29.79" viewBox="0 0 28.835 29.79">
  <g id="童装" transform="translate(0.3 0.293)">
    <path id="路径_21" data-name="路径 21" d="M0,12.194C0,11.012,5.19.375,8.618.03S12.6,2.375,14.185,2.375,16.768.03,19.213.03s5.62,5.473,7.061,8.057,2.97,4.919,1.5,6.124S21.781,11.2,21.034,10.5,20,20.117,20.576,21.159s2.971,2.2,2.971,2.547.183,2.583-.318,2.583-5.3-.108-6.294-1.043-2-7.564-3.236-7.564-2.7,10.49-3.48,11a2.646,2.646,0,0,1-2.741,0c-.593-.508,0-14.135,0-14.135s.228-2.758-.757-3.317S3.569,12.491,2.248,12.9,0,13.375,0,12.194Z" transform="translate(0 0)" fill="#ffd4d3" stroke="#544a4a" stroke-miterlimit="10" stroke-width="0.6"/>
    <path id="路径_4" data-name="路径 4" d="M2,3,3.693,1.442A.873.873,0,0,0,3.761.274C3.251-.274,2,.274,2,.274S.846-.262.3.274A.888.888,0,0,0,.222,1.442Z" transform="translate(12 7.03)" fill="#fe6788"/>
  </g>
</svg>
