<svg xmlns="http://www.w3.org/2000/svg" width="17.318" height="20.551" viewBox="0 0 17.318 20.551">
  <g id="编组_4" data-name="编组 4" transform="translate(0.9 0.9)">
    <path id="Stroke_39" data-name="Stroke 39" d="M10.136,5.067A5.068,5.068,0,1,1,5.069,0,5.068,5.068,0,0,1,10.136,5.067Z" transform="translate(2.818 0)" fill="none" stroke="#9d9d9d" stroke-linecap="round" stroke-miterlimit="10" stroke-width="1.8"/>
    <path id="Stroke_41" data-name="Stroke 41" d="M15.468,8.616a8.082,8.082,0,0,0,.05-.857A7.759,7.759,0,0,0,0,7.759c0,.29.05.857.05.857Z" transform="translate(0 10.135)" fill="none" stroke="#9d9d9d" stroke-linecap="round" stroke-linejoin="round" stroke-miterlimit="10" stroke-width="1.8"/>
    <path id="Fill_43" data-name="Fill 43" d="M1.74.87A.87.87,0,1,1,.87,0a.871.871,0,0,1,.87.87" transform="translate(5.465 3.152)" fill="#989899"/>
    <path id="Fill_45" data-name="Fill 45" d="M1.74.87A.87.87,0,1,1,.87,0a.87.87,0,0,1,.87.87" transform="translate(8.611 3.152)" fill="#989899"/>
  </g>
</svg>
