<svg xmlns="http://www.w3.org/2000/svg" width="20.989" height="19.99" viewBox="0 0 20.989 19.99">
  <g id="编组_2" data-name="编组 2" transform="translate(0.001)">
    <path id="Fill_23" data-name="Fill 23" d="M15.509,19.99H4.965a2.42,2.42,0,0,1-2.418-2.417V11.456a.933.933,0,0,1,.011-.126c0-.027.007-.054.009-.081H1.562a1.53,1.53,0,0,1-1.454-1A1.528,1.528,0,0,1,.513,8.538L9.443.406a1.559,1.559,0,0,1,2.1,0l8.932,8.132a1.558,1.558,0,0,1-1.049,2.711H17.9c0,.026.006.051.009.076a.932.932,0,0,1,.012.131v6.117A2.42,2.42,0,0,1,15.509,19.99Zm-5.016-18.1L2.185,9.449H4.53L4.362,11.4c0,.043-.009.086-.015.129v6.041a.618.618,0,0,0,.618.616H15.509a.618.618,0,0,0,.617-.616V11.533c-.006-.048-.011-.087-.014-.129l-.169-1.955H18.8Z" transform="translate(0 0)" fill="#9d9d9d"/>
    <path id="Stroke_25" data-name="Stroke 25" d="M0,.146C-.038.031,3.009,3.764,5.942,0" transform="translate(7.207 13.233)" fill="none" stroke="#9d9d9d" stroke-linecap="round" stroke-miterlimit="10" stroke-width="1.8"/>
  </g>
</svg>
