<svg xmlns="http://www.w3.org/2000/svg" width="19.829" height="20.272" viewBox="0 0 19.829 20.272">
  <g id="编组" transform="translate(0.896 0.76)">
    <path id="Stroke_1" data-name="Stroke 1" d="M0,0H.783A2.158,2.158,0,0,1,2.941,2.158v9.159a1.5,1.5,0,0,0,1.5,1.5H16.531a1.5,1.5,0,0,0,1.5-1.5V4.068a1.5,1.5,0,0,0-1.506-1.5l-9.679.053" transform="translate(0.004 0.14)" fill="none" stroke="#9d9d9d" stroke-linecap="round" stroke-miterlimit="10" stroke-width="1.8"/>
    <path id="Stroke_3" data-name="Stroke 3" d="M0,.5H5.584" transform="translate(7.189 7.553)" fill="none" stroke="#9d9d9d" stroke-linecap="round" stroke-miterlimit="10" stroke-width="1.8"/>
    <path id="Stroke_5" data-name="Stroke 5" d="M2.9,1.453A1.453,1.453,0,1,1,1.452,0,1.452,1.452,0,0,1,2.9,1.453Z" transform="translate(3.324 15.758)" fill="none" stroke="#9d9d9d" stroke-linecap="round" stroke-miterlimit="10" stroke-width="1.7"/>
    <path id="Stroke_7" data-name="Stroke 7" d="M2.9,1.453A1.453,1.453,0,1,1,1.452,0,1.452,1.452,0,0,1,2.9,1.453Z" transform="translate(14.247 15.758)" fill="none" stroke="#9d9d9d" stroke-linecap="round" stroke-miterlimit="10" stroke-width="1.7"/>
  </g>
</svg>
