<svg xmlns="http://www.w3.org/2000/svg" xmlns:xlink="http://www.w3.org/1999/xlink" width="17.318" height="20.553" viewBox="0 0 17.318 20.553">
  <defs>
    <clipPath id="clip-path">
      <path id="Clip_48" data-name="Clip 48" d="M0,5.968a5.975,5.975,0,0,0,5.969,5.968h0a5.974,5.974,0,0,0,5.967-5.968h0A5.975,5.975,0,0,0,5.969,0h0A5.976,5.976,0,0,0,0,5.968" transform="translate(0.703 0.447)" fill="none"/>
    </clipPath>
    <linearGradient id="linear-gradient" x1="0.714" y1="0.5" x2="0.143" y2="1.767" gradientUnits="objectBoundingBox">
      <stop offset="0" stop-color="#e36943"/>
      <stop offset="1" stop-color="#ee7a44"/>
    </linearGradient>
    <clipPath id="clip-path-2">
      <path id="Clip_50" data-name="Clip 50" d="M0,8.659c0,.316.054.936.054.936h0a.9.9,0,0,0,.9.822H16.368a.9.9,0,0,0,.894-.8h0a8.639,8.639,0,0,0,.056-.956h0A8.67,8.67,0,0,0,8.658,0h0A8.669,8.669,0,0,0,0,8.659" transform="translate(-2.115 10.583)" fill="none"/>
    </clipPath>
  </defs>
  <g id="编组_8" data-name="编组 8" transform="translate(2.115 -0.447)">
    <g id="编组">
      <path id="Clip_48-2" data-name="Clip 48" d="M0,5.968a5.975,5.975,0,0,0,5.969,5.968h0a5.974,5.974,0,0,0,5.967-5.968h0A5.975,5.975,0,0,0,5.969,0h0A5.976,5.976,0,0,0,0,5.968" transform="translate(0.703 0.447)" fill="none"/>
      <g id="编组-2" data-name="编组" clip-path="url(#clip-path)">
        <path id="Fill_47" data-name="Fill 47" d="M0,5.968a5.975,5.975,0,0,0,5.969,5.968h0a5.974,5.974,0,0,0,5.967-5.968h0A5.975,5.975,0,0,0,5.969,0h0A5.976,5.976,0,0,0,0,5.968" transform="translate(0.703 0.447)" fill="url(#linear-gradient)"/>
      </g>
      <path id="Clip_50-2" data-name="Clip 50" d="M0,8.659c0,.316.054.936.054.936h0a.9.9,0,0,0,.9.822H16.368a.9.9,0,0,0,.894-.8h0a8.639,8.639,0,0,0,.056-.956h0A8.67,8.67,0,0,0,8.658,0h0A8.669,8.669,0,0,0,0,8.659" transform="translate(-2.115 10.583)" fill="none"/>
      <g id="编组-3" data-name="编组" clip-path="url(#clip-path-2)">
        <path id="Fill_49" data-name="Fill 49" d="M0,8.659c0,.316.054.936.054.936h0a.9.9,0,0,0,.9.822H16.368a.9.9,0,0,0,.894-.8h0a8.639,8.639,0,0,0,.056-.956h0A8.67,8.67,0,0,0,8.658,0h0A8.669,8.669,0,0,0,0,8.659" transform="translate(-2.115 10.583)" fill="url(#linear-gradient)"/>
      </g>
    </g>
    <path id="Stroke_51" data-name="Stroke 51" d="M0,.042a2.725,2.725,0,0,0,4.042,0" transform="translate(4.865 8.058)" fill="none" stroke="#fefefe" stroke-linecap="round" stroke-miterlimit="10" stroke-width="1.5"/>
  </g>
</svg>
