<svg xmlns="http://www.w3.org/2000/svg" width="17.321" height="29.5" viewBox="0 0 17.321 29.5">
  <g id="美容美体" transform="translate(-0.367)">
    <g id="矩形" fill="#fde2f5" stroke-miterlimit="10">
      <path d="M 13.00485324859619 22.70000076293945 L 5.338133335113525 22.70000076293945 C 3.966973543167114 22.70000076293945 2.813953399658203 21.67288970947266 2.65609335899353 20.31085968017578 L 0.6857534646987915 3.31085991859436 C 0.5971534252166748 2.546519994735718 0.8398834466934204 1.778630018234253 1.351683497428894 1.204079985618591 C 1.8634934425354 0.6295199990272522 2.598333358764648 0.300000011920929 3.367793560028076 0.300000011920929 L 14.68825340270996 0.300000011920929 C 15.44912338256836 0.300000011920929 16.1784839630127 0.6234200000762939 16.68930435180664 1.187319993972778 C 17.20012283325195 1.751230001449585 17.45009422302246 2.508899927139282 17.37511253356934 3.266069889068604 L 15.69171333312988 20.26606941223145 C 15.55430316925049 21.65364074707031 14.39921379089355 22.70000076293945 13.00485324859619 22.70000076293945 Z" stroke="none"/>
      <path d="M 3.367793083190918 0.6000003814697266 C 2.683833122253418 0.6000003814697266 2.030633926391602 0.8929100036621094 1.575702667236328 1.403619766235352 C 1.120763778686523 1.914339065551758 0.9050025939941406 2.59691047668457 0.9837532043457031 3.27631950378418 L 2.954092979431152 20.27631950378418 C 3.094413757324219 21.48702049255371 4.119333267211914 22.39999961853027 5.338133811950684 22.39999961853027 L 13.00485324859619 22.39999961853027 C 14.24428367614746 22.39999961853027 15.27103328704834 21.46990013122559 15.39317321777344 20.23650932312012 L 17.07657432556152 3.236499786376953 C 17.14420318603516 2.553569793701172 16.92770385742188 1.897350311279297 16.46696281433105 1.388729095458984 C 16.00622367858887 0.8801097869873047 15.37453365325928 0.6000003814697266 14.68825340270996 0.6000003814697266 L 3.367793083190918 0.6000003814697266 M 3.367793083190918 0 L 14.68825340270996 0 C 16.46196365356445 0 17.84844398498535 1.530550003051758 17.67365264892578 3.295629501342773 L 15.99025344848633 20.29562950134277 C 15.83826351165771 21.83048057556152 14.5472240447998 23 13.00485324859619 23 L 5.338133811950684 23 C 3.814903259277344 23 2.533452987670898 21.85849952697754 2.358083724975586 20.34539985656738 L 0.3877429962158203 3.345399856567383 C 0.1812229156494141 1.563610076904297 1.574073791503906 0 3.367793083190918 0 Z" stroke="none" fill="#6e6767"/>
    </g>
    <g id="矩形-2" data-name="矩形" transform="translate(3 22.5)" fill="#fff" stroke="#6e6767" stroke-miterlimit="10" stroke-width="0.6">
      <rect width="12" height="7" rx="2" stroke="none"/>
      <rect x="0.3" y="0.3" width="11.4" height="6.4" rx="1.7" fill="none"/>
    </g>
    <path id="直线_5" data-name="直线 5" d="M.5.5h15" transform="translate(1 5)" fill="none" stroke="#6e6767" stroke-linecap="square" stroke-miterlimit="10" stroke-width="0.6"/>
    <path id="直线_6" data-name="直线 6" d="M0,1H7" transform="translate(7.5 24.5)" fill="none" stroke="#6e6767" stroke-linecap="square" stroke-miterlimit="10" stroke-width="0.6"/>
    <path id="路径_4" data-name="路径 4" d="M3.006,5,5.54,2.4a1.57,1.57,0,0,0,.1-1.946c-.765-.914-2.635,0-2.635,0S1.269-.437.443.457A1.605,1.605,0,0,0,.333,2.4Z" transform="translate(6 10)" fill="#ff4787" stroke="#6e6767" stroke-miterlimit="10" stroke-width="0.6"/>
  </g>
</svg>
