<svg xmlns="http://www.w3.org/2000/svg" width="33.649" height="30.098" viewBox="0 0 33.649 30.098">
  <g id="身体护理" transform="translate(0 -0.95)">
    <rect id="矩形" width="4" height="5" rx="0.5" transform="translate(11.187 21.351) rotate(42)" fill="#2f2f2f"/>
    <g id="矩形-2" data-name="矩形" transform="translate(24.034 0.909) rotate(42)" fill="#ffe2f6" stroke-miterlimit="10">
      <path d="M 10.55631160736084 24.70000076293945 L 2.425411701202393 24.70000076293945 C 2.055481672286987 24.70000076293945 1.748551607131958 24.41073036193848 1.726641654968262 24.04146003723145 L 0.3623016476631165 1.041460037231445 C 0.3507716357707977 0.8469399809837341 0.4180116355419159 0.6617100238800049 0.5516616106033325 0.5199000239372253 C 0.6853116154670715 0.3781000077724457 0.8662216067314148 0.300000011920929 1.061081647872925 0.300000011920929 L 11.9381217956543 0.300000011920929 C 12.13308143615723 0.300000011920929 12.31405162811279 0.3781599998474121 12.44771194458008 0.5200899839401245 C 12.58138179779053 0.6620299816131592 12.64855194091797 0.8473700284957886 12.63686180114746 1.041980028152466 L 11.255051612854 24.0419807434082 C 11.23288154602051 24.41095924377441 10.92595195770264 24.70000076293945 10.55631160736084 24.70000076293945 Z" stroke="none"/>
      <path d="M 1.061081886291504 0.6000003814697266 C 0.9497318267822266 0.6000003814697266 0.8463516235351563 0.6446304321289063 0.7699813842773438 0.7256603240966797 C 0.6936120986938477 0.8066902160644531 0.655181884765625 0.9125308990478516 0.6617813110351563 1.023679733276367 L 2.026122093200684 24.02367973327637 C 2.038631439208984 24.23469924926758 2.214031219482422 24.39999961853027 2.425421714782715 24.39999961853027 L 10.55631160736084 24.39999961853027 C 10.76754188537598 24.39999961853027 10.94292163848877 24.23483085632324 10.95559120178223 24.02399063110352 L 12.33740139007568 1.023990631103516 C 12.34408187866211 0.9127902984619141 12.30569171905518 0.8068695068359375 12.2293119430542 0.7257709503173828 C 12.15294170379639 0.6446704864501953 12.04952144622803 0.6000003814697266 11.9381217956543 0.6000003814697266 L 1.061081886291504 0.6000003814697266 M 1.061081886291504 0 L 11.9381217956543 0 C 12.51398181915283 0 12.97085189819336 0.4851398468017578 12.93632125854492 1.059970855712891 L 11.55451202392578 24.05997085571289 C 11.52278137207031 24.58801078796387 11.08530139923096 25 10.55631160736084 25 L 2.425421714782715 25 C 1.89613151550293 25 1.458511352539063 24.58757019042969 1.42717170715332 24.0592098236084 L 0.06283187866210938 1.059209823608398 C 0.02875137329101563 0.4846591949462891 0.4855117797851563 0 1.061081886291504 0 Z" stroke="none" fill="#71666e"/>
    </g>
    <path id="路径_4" data-name="路径 4" d="M3.006,5,5.54,2.4a1.57,1.57,0,0,0,.1-1.946c-.765-.914-2.635,0-2.635,0S1.269-.437.443.457A1.605,1.605,0,0,0,.333,2.4Z" transform="translate(19.443 10.682) rotate(42)" fill="#ff4787"/>
    <path id="直线_7" data-name="直线 7" d="M0,0,8.8,7.8" transform="translate(23 3.048)" fill="none" stroke="#71666e" stroke-linecap="square" stroke-miterlimit="10" stroke-width="0.6"/>
    <path id="路径_7" data-name="路径 7" d="M1.125,0,9.413,7.443v.418l-.783.68L0,.884.64,0Z" transform="translate(23.266 2)" fill="#eeacb6"/>
    <g id="矩形-3" data-name="矩形" transform="translate(0 27.048)" fill="#fff" stroke="#5b5b5b" stroke-miterlimit="10" stroke-width="0.6">
      <path d="M4,0H8A0,0,0,0,1,8,0V.537A3.463,3.463,0,0,1,4.537,4H0A0,0,0,0,1,0,4V4A4,4,0,0,1,4,0Z" stroke="none"/>
      <path d="M3.688.3h4A.012.012,0,0,1,7.7.312V.769A2.931,2.931,0,0,1,4.769,3.7H.312A.012.012,0,0,1,.3,3.688v0A3.388,3.388,0,0,1,3.688.3Z" fill="none"/>
    </g>
  </g>
</svg>
