<svg xmlns="http://www.w3.org/2000/svg" xmlns:xlink="http://www.w3.org/1999/xlink" width="31.749" height="31.81" viewBox="0 0 31.749 31.81">
  <defs>
    <clipPath id="clip-path">
      <path id="Clip_2" data-name="Clip 2" d="M0,0H-21V20H0Z" transform="rotate(180)" fill="none"/>
    </clipPath>
  </defs>
  <g id="零食" transform="translate(-0.161 -0.529)">
    <path id="路径_14" data-name="路径 14" d="M0,2.937s1.82.949,2.931.633S8.918,0,8.918,0L4.8,4.006l-1.866.784-1.106-.2Z" transform="translate(2.289 25.985)" fill="#efe7da"/>
    <g id="矩形" transform="translate(0.161 27.389) rotate(-45)" fill="none" stroke="#6d6d6d" stroke-miterlimit="10" stroke-width="0.6">
      <rect width="18" height="7" rx="3" stroke="none"/>
      <rect x="0.3" y="0.3" width="17.4" height="6.4" rx="2.7" fill="none"/>
    </g>
    <g id="椭圆形" transform="translate(6 3)" fill="#fddfe1" stroke-miterlimit="10">
      <path d="M 12 23.70000076293945 C 8.874819755554199 23.70000076293945 5.936689853668213 22.48299026489258 3.726850032806396 20.27314949035645 C 1.517009973526001 18.06331062316895 0.300000011920929 15.1251802444458 0.300000011920929 12 C 0.300000011920929 9.304490089416504 1.238749980926514 6.673689842224121 2.943330049514771 4.592219829559326 C 4.624720096588135 2.539069890975952 6.97150993347168 1.105839967727661 9.551380157470703 0.5565599799156189 C 10.35101985931396 0.3863199949264526 11.17486000061035 0.300000011920929 12 0.300000011920929 C 15.1251802444458 0.300000011920929 18.06331062316895 1.517009973526001 20.27314949035645 3.726850032806396 C 22.48299026489258 5.936689853668213 23.70000076293945 8.874819755554199 23.70000076293945 12 C 23.70000076293945 15.1251802444458 22.48299026489258 18.06331062316895 20.27314949035645 20.27314949035645 C 18.06331062316895 22.48299026489258 15.1251802444458 23.70000076293945 12 23.70000076293945 Z" stroke="none"/>
      <path d="M 12 23.39999961853027 C 15.0450496673584 23.39999961853027 17.90784072875977 22.21418952941895 20.06101989746094 20.06101989746094 C 22.21418952941895 17.90784072875977 23.39999961853027 15.0450496673584 23.39999961853027 12 C 23.39999961853027 8.954950332641602 22.21418952941895 6.092160224914551 20.06101989746094 3.938980102539063 C 17.90784072875977 1.785809993743896 15.0450496673584 0.6000000238418579 12 0.6000000238418579 C 11.19581031799316 0.6000000238418579 10.39299964904785 0.6841099858283997 9.613860130310059 0.8499900102615356 C 7.100359916687012 1.385130047798157 4.813819885253906 2.781650066375732 3.175440073013306 4.782299995422363 C 1.514639973640442 6.810299873352051 0.6000000238418579 9.373600006103516 0.6000000238418579 12 C 0.6000000238418579 15.0450496673584 1.785809993743896 17.90784072875977 3.938980102539063 20.06101989746094 C 6.092160224914551 22.21418952941895 8.954950332641602 23.39999961853027 12 23.39999961853027 M 12 24 C 5.372580051422119 24 -1.77635683940025e-15 18.62742042541504 -1.77635683940025e-15 12 C -1.77635683940025e-15 6.233819961547852 4.066979885101318 1.417520046234131 9.488909721374512 0.2631399929523468 C 10.29872989654541 0.09072999656200409 11.13877010345459 -1.77635683940025e-15 12 -1.77635683940025e-15 C 18.62742042541504 -1.77635683940025e-15 24 5.372580051422119 24 12 C 24 18.62742042541504 18.62742042541504 24 12 24 Z" stroke="none" fill="#6d6d6d"/>
    </g>
    <g id="编组" transform="translate(31.91 16.616) rotate(-130)">
      <path id="Clip_2-2" data-name="Clip 2" d="M0,0H-21V20H0Z" transform="rotate(180)" fill="none"/>
      <g id="编组-2" data-name="编组" clip-path="url(#clip-path)">
        <path id="Fill_1" data-name="Fill 1" d="M-20.793,7.587a10.187,10.187,0,0,0,2.637,8.947c.143.156.3.3.454.443s.306.3.472.431l.506.393a5.018,5.018,0,0,0,.525.374,9.107,9.107,0,0,0,1.124.644l.59.281c.2.093.406.155.61.233s.412.149.621.219.425.106.639.155.429.109.646.136l.656.085A9.656,9.656,0,0,0-9.943,20c.234,0,.467-.028.7-.048a5.689,5.689,0,0,0,.7-.1l.7-.143c.23-.058.456-.134.684-.2l.342-.109.332-.137c.22-.094.443-.185.661-.288a10.31,10.31,0,0,0,1.241-.744l.3-.21.148-.106L-4,17.8l.556-.475A10.683,10.683,0,0,0-.395,12.288a10.162,10.162,0,0,0,.305-1.483c.035-.25.043-.5.063-.754a6.351,6.351,0,0,0,.021-.777C-.017,9-.014,8.733-.048,8.464s-.069-.54-.11-.809q-.087-.4-.185-.8c-.067-.264-.164-.52-.251-.779A9.526,9.526,0,0,0-4.7,1.206,9.331,9.331,0,0,0-7.728.133c-.265-.036-.53-.091-.8-.1S-9.055,0-9.324,0c-.288.012-.576.024-.863.054s-.574.084-.855.154A8.062,8.062,0,0,0-16.323,4.4a8.255,8.255,0,0,0-.861,3.341,7.041,7.041,0,0,0,.138,1.812,4.362,4.362,0,0,0,.112.455c.044.15.083.3.138.446a7.033,7.033,0,0,0,.369.853,6.777,6.777,0,0,0,2.416,2.664,6.473,6.473,0,0,0,3.354.976c.148,0,.281.005.44-.008s.314-.028.47-.046a5.546,5.546,0,0,0,.92-.223,5.585,5.585,0,0,0,1.648-.883,5.508,5.508,0,0,0,1.96-3.043q.047-.224.085-.448c.027-.149.034-.3.048-.45a3.782,3.782,0,0,0,.012-.448A4.045,4.045,0,0,0-5.1,8.933a4.543,4.543,0,0,0-.574-1.826A4.288,4.288,0,0,0-8.52,5a3.969,3.969,0,0,0-1.762.042,3.355,3.355,0,0,0-1.558.908,3.385,3.385,0,0,0-.848,1.519,3.072,3.072,0,0,0,.042,1.7,2.585,2.585,0,0,0,.992,1.335,2.268,2.268,0,0,0,1.47.4,1.873,1.873,0,0,0,.73-.218A1.761,1.761,0,0,0-8.9,10.21a1.678,1.678,0,0,0,.3-.625,1.576,1.576,0,0,0,.01-.652H-8.94a1.159,1.159,0,0,1-.365.835,1.1,1.1,0,0,1-.839.3A1.409,1.409,0,0,1-11,9.713a1.475,1.475,0,0,1-.462-.8,1.789,1.789,0,0,1,.089-.946,1.855,1.855,0,0,1,.544-.777,1.783,1.783,0,0,1,.846-.392,2.155,2.155,0,0,1,.942.072A2.3,2.3,0,0,1-7.615,8.088a2.368,2.368,0,0,1,.229.938,3.191,3.191,0,0,1-.13.982,3.036,3.036,0,0,1-1.144,1.568,2.858,2.858,0,0,1-1.846.5,3.638,3.638,0,0,1-1.852-.634A3.787,3.787,0,0,1-13.626,9.93a3.835,3.835,0,0,1-.34-1.964,4.846,4.846,0,0,1,.559-1.945,4.73,4.73,0,0,1,3.1-2.364c.162-.038.328-.053.491-.081s.332-.017.5-.027l.5.027a4.76,4.76,0,0,1,.5.069,5.886,5.886,0,0,1,1.889.688A6.026,6.026,0,0,1-3.813,7.374c.055.162.124.32.168.486l.128.5.078.51c.028.17.023.344.036.516a3.623,3.623,0,0,1,0,.52c-.011.174-.009.349-.03.522a8.05,8.05,0,0,1-.184,1.028,7.691,7.691,0,0,1-2,3.595,8.166,8.166,0,0,1-1.638,1.255c-.151.082-.307.154-.46.232l-.231.114-.241.091c-.161.059-.32.126-.483.178l-.5.133a3.545,3.545,0,0,1-.5.1c-.17.023-.337.064-.509.072a7.4,7.4,0,0,1-1.03.021l-.518-.025c-.173-.005-.342-.047-.514-.068l-.513-.078-.5-.129a9.422,9.422,0,0,1-3.673-1.906,9.867,9.867,0,0,1-2.553-3.322,9.951,9.951,0,0,1-.951-4.13Z" transform="rotate(180)" fill="#ff6786"/>
      </g>
    </g>
  </g>
</svg>
