<svg xmlns="http://www.w3.org/2000/svg" width="24" height="26.5" viewBox="0 0 24 26.5">
  <g id="香水彩妆" transform="translate(0 -0.5)">
    <g id="矩形备份" transform="translate(15.5 0.5) rotate(90)" fill="#fff5e1" stroke-miterlimit="10">
      <path d="M 17.00134086608887 6.66649341583252 C 16.98101043701172 6.66649341583252 16.96058082580566 6.66567325592041 16.9399299621582 6.664013385772705 L 8.895039558410645 6.017593383789063 L 8.874739646911621 6.015963077545166 L 8.854439735412598 6.017643451690674 L 1.061750054359436 6.661433219909668 C 1.040740013122559 6.663163185119629 1.019500017166138 6.664043426513672 0.9985899925231934 6.664043426513672 C 0.5858200192451477 6.664043426513672 0.25 6.327563285827637 0.25 5.913973331451416 L 0.25 1.091443300247192 C 0.25 0.6778432726860046 0.5857999920845032 0.341363251209259 0.9985600113868713 0.341363251209259 C 1.020709991455078 0.341363251209259 1.043220043182373 0.3423532545566559 1.065459966659546 0.3443032503128052 L 8.85319995880127 1.026583194732666 L 8.874719619750977 1.028463244438171 L 8.896249771118164 1.026633262634277 L 16.93633079528809 0.3415432572364807 C 16.95796966552734 0.3396932482719421 16.9798698425293 0.3387632369995117 17.00141906738281 0.3387632369995117 C 17.4141902923584 0.3387632369995117 17.75 0.6752432584762573 17.75 1.088833212852478 L 17.75 5.916423320770264 C 17.75 6.329973220825195 17.41415023803711 6.66645336151123 17.00134086608887 6.66649341583252 Z" stroke="none"/>
      <path d="M 17.00141906738281 0.5887632369995117 C 16.98690032958984 0.5887632369995117 16.9721508026123 0.589393138885498 16.95755004882813 0.5906333923339844 L 8.91746997833252 1.275723457336426 L 8.874420166015625 1.279393196105957 L 8.831379890441895 1.275623321533203 L 1.043680191040039 0.593353271484375 C 1.028629302978516 0.5920333862304688 1.013450622558594 0.5913634300231934 0.9985599517822266 0.5913634300231934 C 0.7236499786376953 0.5913634300231934 0.5 0.8156933784484863 0.5 1.091443061828613 L 0.5 5.913973331451416 C 0.5 6.189713478088379 0.7236804962158203 6.414043426513672 0.9986095428466797 6.414043426513672 C 1.012680053710938 6.414043426513672 1.027009963989258 6.413453102111816 1.041160583496094 6.412283420562744 L 8.833849906921387 5.768493175506592 L 8.874460220336914 5.765133380889893 L 8.915069580078125 5.768403053283691 L 16.95993995666504 6.414823055267334 C 16.97386932373047 6.415933132171631 16.98764991760254 6.41649341583252 17.00136947631836 6.41649341583252 C 17.27631950378418 6.41649341583252 17.5 6.192163467407227 17.5 5.916423320770264 L 17.5 1.088833332061768 C 17.5 0.9547433853149414 17.44772911071777 0.8289031982421875 17.35283088684082 0.7345032691955566 C 17.25832939147949 0.6405034065246582 17.1335506439209 0.5887532234191895 17.0014705657959 0.5887632369995117 L 17.00141906738281 0.5887632369995117 M 17.00142478942871 0.0887608528137207 C 17.5473690032959 0.08870792388916016 18 0.5321207046508789 18 1.088833332061768 L 18 5.916423320770264 C 18 6.472817420959473 17.54756546020508 6.916490077972412 17.00136947631836 6.916490077972412 C 16.97439575195313 6.916490077972412 16.94729614257813 6.915413856506348 16.9199104309082 6.91321325302124 L 8.875020027160645 6.266793251037598 L 1.082330703735352 6.910583019256592 C 1.054229736328125 6.912904262542725 1.026271820068359 6.914045810699463 0.9986057281494141 6.914045810699463 C 0.4524936676025391 6.914045810699463 0 6.470537185668945 0 5.913973331451416 L 0 1.091443061828613 C 0 0.5346512794494629 0.4528446197509766 0.09136247634887695 0.9985580444335938 0.09136247634887695 C 1.027900695800781 0.09136247634887695 1.057456970214844 0.09264087677001953 1.0872802734375 0.09525346755981445 L 8.875020027160645 0.7775330543518066 L 16.91510009765625 0.09244346618652344 C 16.94406127929688 0.08997535705566406 16.97291946411133 0.08876371383666992 17.00142478942871 0.0887608528137207 Z" stroke="none" fill="#493e3b"/>
    </g>
    <g id="矩形" transform="translate(0 9)" fill="#ffe2f6" stroke="#493e3b" stroke-miterlimit="10" stroke-width="0.6">
      <rect width="24" height="18" rx="2" stroke="none"/>
      <rect x="0.3" y="0.3" width="23.4" height="17.4" rx="1.7" fill="none"/>
    </g>
    <g id="矩形-2" data-name="矩形" transform="translate(3 6)" fill="#fd4889" stroke-miterlimit="10">
      <path d="M 17.00105094909668 4.690996170043945 C 16.9864501953125 4.690996170043945 16.97179985046387 4.690576076507568 16.95702934265137 4.689725875854492 L 8.889349937438965 4.226686000823975 L 8.874819755554199 4.225855827331543 L 8.860289573669434 4.226706027984619 L 1.044180035591125 4.68794584274292 C 1.029019951820374 4.688846111297607 1.0139000415802 4.689285755157471 0.9989200234413147 4.689285755157471 C 0.5859599709510803 4.689285755157471 0.25 4.352816104888916 0.25 3.939245939254761 L 0.25 1.064535975456238 C 0.25 0.6509659886360168 0.5859400033950806 0.3144959807395935 0.9988700151443481 0.3144959807395935 C 1.01476001739502 0.3144959807395935 1.030750036239624 0.314985990524292 1.046849966049194 0.315995991230011 L 8.859410285949707 0.8048959970474243 L 8.874810218811035 0.805866003036499 L 8.890210151672363 0.8049259781837463 L 16.95443916320801 0.3141059875488281 C 16.97009086608887 0.3131559789180756 16.98566055297852 0.3126759827136993 17.00111961364746 0.3126759827136993 C 17.41404914855957 0.3126759827136993 17.75 0.6491459608078003 17.75 1.062716007232666 L 17.75 3.940955877304077 C 17.75 4.354506015777588 17.41402053833008 4.690976142883301 17.00105094909668 4.690996170043945 Z" stroke="none"/>
      <path d="M 17.00111961364746 0.562675952911377 C 16.99066925048828 0.562675952911377 16.98014068603516 0.5630059242248535 16.96962928771973 0.5636458396911621 L 8.905400276184082 1.054466009140015 L 8.874589920043945 1.056335926055908 L 8.843790054321289 1.054405927658081 L 1.031339645385742 0.5655159950256348 C 1.020450592041016 0.5648360252380371 1.009620666503906 0.5644960403442383 0.998870849609375 0.5644960403442383 C 0.7237892150878906 0.5644960403442383 0.5 0.788815975189209 0.5 1.064536094665527 L 0.5 3.939245939254761 C 0.5 4.2149658203125 0.7238101959228516 4.439286231994629 0.9989204406738281 4.439286231994629 C 1.008989334106445 4.439286231994629 1.019159317016602 4.438995838165283 1.029460906982422 4.438385963439941 L 8.845569610595703 3.977146148681641 L 8.87462043762207 3.975425958633423 L 8.903670310974121 3.977096080780029 L 16.97125053405762 4.440135955810547 C 16.98125076293945 4.440706253051758 16.99118041992188 4.440996170043945 17.00106048583984 4.440996170043945 C 17.27618026733398 4.440996170043945 17.5 4.216675758361816 17.5 3.940956115722656 L 17.5 1.062716007232666 C 17.5 0.7869958877563477 17.27619934082031 0.562675952911377 17.00111961364746 0.562675952911377 M 17.00111961364746 0.06268024444580078 C 17.54876518249512 0.06267929077148438 18 0.5073199272155762 18 1.062716007232666 L 18 3.940956115722656 C 18 4.496154308319092 17.5489501953125 4.940993309020996 17.00106239318848 4.940993309020996 C 16.98170852661133 4.940993309020996 16.9622802734375 4.940439701080322 16.94269943237305 4.939315795898438 L 8.875020027160645 4.47627592086792 L 1.058910369873047 4.937516212463379 C 1.038820266723633 4.938701629638672 1.018772125244141 4.939288139343262 0.9989185333251953 4.939288139343262 C 0.4510993957519531 4.939288139343262 0 4.494570732116699 0 3.939245939254761 L 0 1.064536094665527 C 0 0.5090575218200684 0.4513435363769531 0.06449365615844727 0.9988670349121094 0.06449365615844727 C 1.019933700561523 0.06449365615844727 1.041130065917969 0.06515121459960938 1.062459945678711 0.06648588180541992 L 8.875020027160645 0.5553860664367676 L 16.93925094604492 0.06456613540649414 C 16.95999526977539 0.06330299377441406 16.98062515258789 0.06268024444580078 17.00111961364746 0.06268024444580078 Z" stroke="none" fill="#493e3b"/>
    </g>
    <g id="矩形-3" data-name="矩形" transform="translate(4 13)" fill="#fff" stroke-miterlimit="10">
      <path d="M 15 10.84843730926514 L 2 10.84843730926514 C 1.062620043754578 10.84843730926514 0.300000011920929 10.08581638336182 0.300000011920929 9.148436546325684 L 0.300000011920929 4.190276622772217 C 0.300000011920929 3.727686882019043 0.4919900000095367 3.279286861419678 0.826740026473999 2.960036754608154 L 3.613461494445801 0.30240198969841 C 4.881163120269775 0.3544880151748657 5.720449924468994 1.246423959732056 6.607600212097168 2.1890869140625 C 7.582859992980957 3.225376844406128 8.591320037841797 4.296947002410889 10.25743007659912 4.447227001190186 L 10.34622001647949 4.455236911773682 L 10.42496967315674 4.413456916809082 L 14.20330047607422 2.408996820449829 C 14.4547004699707 2.27562689781189 14.72218036651611 2.208006858825684 14.99831962585449 2.208006858825684 C 15.93663024902344 2.208006858825684 16.70000076293945 2.971856832504272 16.70000076293945 3.910756826400757 L 16.70000076293945 9.148436546325684 C 16.70000076293945 10.08581638336182 15.93737983703613 10.84843730926514 15 10.84843730926514 Z" stroke="none"/>
      <path d="M 3.725275993347168 0.610325813293457 L 1.03378963470459 3.177136898040771 C 0.7581100463867188 3.440046787261963 0.6000003814697266 3.809326648712158 0.6000003814697266 4.190276622772217 L 0.6000003814697266 9.148436546325684 C 0.6000003814697266 9.92039680480957 1.228039741516113 10.54843711853027 2 10.54843711853027 L 15 10.54843711853027 C 15.77196025848389 10.54843711853027 16.39999961853027 9.92039680480957 16.39999961853027 9.148436546325684 L 16.39999961853027 3.910747051239014 C 16.39999961853027 3.525656700134277 16.24943923950195 3.168776988983154 15.97605991363525 2.905837059020996 C 15.71317958831787 2.652997016906738 15.35680961608887 2.507996559143066 14.99833965301514 2.508007049560547 C 14.77169990539551 2.508016586303711 14.55152034759521 2.56386661529541 14.34389972686768 2.674006462097168 L 10.56556987762451 4.678466796875 L 10.40806007385254 4.762026786804199 L 10.2304801940918 4.746006965637207 C 8.450920104980469 4.58549690246582 7.355560302734375 3.421586990356445 6.389140129089355 2.394686698913574 C 5.541696548461914 1.494215965270996 4.802290916442871 0.7085695266723633 3.725275993347168 0.610325813293457 M 3.495869636535645 -2.86102294921875e-06 C 6.408559799194336 -2.86102294921875e-06 7.163680076599121 3.86695671081543 10.28437995910645 4.148437023162842 L 14.06270980834961 2.143977165222168 C 14.36775684356689 1.982146263122559 14.68718338012695 1.908011436462402 14.99832344055176 1.908002853393555 C 16.04584884643555 1.907974243164063 17 2.748162269592285 17 3.910747051239014 L 17 9.148436546325684 C 17 10.25300693511963 16.10457038879395 11.14843654632568 15 11.14843654632568 L 2 11.14843654632568 C 0.8954296112060547 11.14843654632568 0 10.25300693511963 0 9.148436546325684 L 0 4.190276622772217 C 0 3.643396854400635 0.2239398956298828 3.120367050170898 0.6196994781494141 2.742937088012695 L 3.495869636535645 -2.86102294921875e-06 Z" stroke="none" fill="#493e3b"/>
    </g>
    <circle id="椭圆形" cx="1" cy="1" r="1" transform="translate(14 13)" fill="#fff" stroke="#493e3b" stroke-miterlimit="10" stroke-width="0.5"/>
    <g id="矩形-4" data-name="矩形" transform="translate(10 6.5)" fill="#fff" stroke="#493e3b" stroke-miterlimit="10" stroke-width="0.5">
      <rect width="4" height="4" stroke="none"/>
      <rect x="0.25" y="0.25" width="3.5" height="3.5" fill="none"/>
    </g>
    <circle id="椭圆形备份_3" data-name="椭圆形备份 3" cx="0.75" cy="0.75" r="0.75" transform="translate(10 11)" fill="#fff" stroke="#493e3b" stroke-miterlimit="10" stroke-width="0.5"/>
  </g>
</svg>
